<svg width="1440" height="270" viewBox="0 0 1440 270" fill="none" xmlns="http://www.w3.org/2000/svg">
<path d="M1463.27 196.968H52.387L57.5254 94.9995L362.716 144.606L381.245 147.821L590.519 181.811H687.837L704.81 177.677L823.927 148.74C823.927 148.74 862.232 108.32 926.073 71.5743C982.44 38.9626 1058.89 9.10692 1146.25 12.3222C1188.6 13.7001 1228.31 24.2644 1263.96 39.422C1277.35 44.9338 1290.12 51.3642 1302.42 58.254C1401.45 112.913 1463.27 196.968 1463.27 196.968Z" fill="url(#paint0_linear_3_4574)"/>
<path opacity="0.08" d="M1284.05 196.968H714.619L704.81 177.218L823.927 148.281C823.927 148.281 862.232 107.861 926.073 71.115L956.28 57.3354C873.287 126.693 1095.8 178.136 1284.05 196.968Z" fill="#A4006D"/>
<path d="M685.19 196.968L299.653 177.217C299.653 177.217 331.73 141.39 374.55 109.697C405.536 86.7314 442.283 65.6027 476.384 61.4689C532.283 55.0384 617.612 129.448 665.104 176.299C672.889 184.107 679.74 191.456 685.19 196.968Z" fill="url(#paint1_linear_3_4574)"/>
<path d="M704.966 197.887C702.007 207.073 700.139 213.044 700.139 213.044C700.139 213.044 695.312 207.533 686.748 198.806C686.125 198.346 685.658 197.428 685.035 196.968L698.27 197.428L704.966 197.887Z" fill="#56BA8A"/>
<path d="M820.346 203.858L705.121 197.887C705.277 197.427 705.277 197.427 705.432 196.968C711.816 177.217 723.806 144.146 737.197 120.721C745.917 105.564 755.259 94.0807 764.135 93.6213C793.408 91.3248 820.346 203.858 820.346 203.858Z" fill="url(#paint2_linear_3_4574)"/>
<path opacity="0.08" d="M665.104 176.299C672.889 184.108 679.74 190.997 685.19 196.969L299.653 177.218C299.653 177.218 331.73 141.391 374.55 109.698C380.467 138.635 551.903 169.409 551.903 169.409L665.104 176.299Z" fill="#A4006D"/>
<path opacity="0.08" d="M685.19 196.968L698.425 197.428L686.903 198.346C686.436 198.346 685.813 197.428 685.19 196.968Z" fill="#A4006D"/>
<path opacity="0.08" d="M820.346 206.155L705.277 196.968C711.661 177.218 723.65 144.147 737.041 120.721C736.419 122.559 722.093 168.031 789.827 169.409C793.408 169.409 820.346 206.155 820.346 206.155Z" fill="#A4006D"/>
<path fill-rule="evenodd" clip-rule="evenodd" d="M1355.83 147.362C1355.83 147.362 1280.93 -106.641 1103.11 139.553C1103.11 139.553 1058.89 89.9471 1016.23 161.141C1016.23 161.141 826.263 194.212 697.024 197.428C697.024 197.428 596.747 186.863 325.657 45.3932C161.384 -40.9588 -28.2706 22.4272 -28.2706 22.4272C-28.2706 22.4272 397.439 270 738.443 270C1079.45 270 1355.83 221.312 1355.83 221.312V147.362Z" fill="url(#paint3_linear_3_4574)"/>
<defs>
<linearGradient id="paint0_linear_3_4574" x1="757.881" y1="196.929" x2="757.881" y2="11.8353" gradientUnits="userSpaceOnUse">
<stop stop-color="#3457A1"/>
<stop offset="0.2386" stop-color="#223E87"/>
<stop offset="0.4916" stop-color="#142A73"/>
<stop offset="0.7456" stop-color="#0C1F67"/>
<stop offset="1" stop-color="#091B63"/>
</linearGradient>
<linearGradient id="paint1_linear_3_4574" x1="492.427" y1="196.958" x2="492.427" y2="61.0261" gradientUnits="userSpaceOnUse">
<stop stop-color="#3457A1"/>
<stop offset="0.2386" stop-color="#223E87"/>
<stop offset="0.4916" stop-color="#142A73"/>
<stop offset="0.7456" stop-color="#0C1F67"/>
<stop offset="1" stop-color="#091B63"/>
</linearGradient>
<linearGradient id="paint2_linear_3_4574" x1="762.642" y1="203.921" x2="762.642" y2="93.4193" gradientUnits="userSpaceOnUse">
<stop stop-color="#3457A1"/>
<stop offset="0.2386" stop-color="#223E87"/>
<stop offset="0.4916" stop-color="#142A73"/>
<stop offset="0.7456" stop-color="#0C1F67"/>
<stop offset="1" stop-color="#091B63"/>
</linearGradient>
<linearGradient id="paint3_linear_3_4574" x1="663.796" y1="270.022" x2="663.796" y2="-0.0794017" gradientUnits="userSpaceOnUse">
<stop stop-color="#3457A1"/>
<stop offset="0.2386" stop-color="#223E87"/>
<stop offset="0.4916" stop-color="#142A73"/>
<stop offset="0.7456" stop-color="#0C1F67"/>
<stop offset="1" stop-color="#091B63"/>
</linearGradient>
</defs>
</svg>
