<svg width="1440" height="218" viewBox="0 0 1440 218" fill="none" xmlns="http://www.w3.org/2000/svg">
    <path fill-rule="evenodd" clip-rule="evenodd" d="M-147.423 7.33215C-147.423 7.33215 288.219 76.1837 676.649 78.3297C1065.08 80.2969 1465.13 50.6103 1465.13 50.6103V216.748L-147.423 218V7.33215V7.33215Z" fill="#0E1031"/>
    <path fill-rule="evenodd" clip-rule="evenodd" d="M204.345 53.8294L174.48 39.3437H162.677L150.337 34.3364L32.8425 27.1829L9.05743 19.1354H6.91141L-50.8524 0H-145.993V6.97457C-145.993 6.97457 124.048 49.5373 204.345 53.8294Z" fill="#09001D"/>
    <path opacity="0.5" fill-rule="evenodd" clip-rule="evenodd" d="M1466.56 87.4504L984.246 90.8483L1466.56 101.221V87.4504Z" fill="#6DC7FF"/>
    <path opacity="0.5" fill-rule="evenodd" clip-rule="evenodd" d="M1434.55 53.8295L1337.45 83.8738L728.512 87.4505L613.699 77.6146C613.699 77.6146 1014.11 80.8336 1434.55 53.8295Z" fill="#6DC7FF"/>
    <path opacity="0.5" fill-rule="evenodd" clip-rule="evenodd" d="M659.839 87.4506L535.727 80.8337L183.422 90.8485L659.839 87.4506Z" fill="#6DC7FF"/>
    <path opacity="0.5" fill-rule="evenodd" clip-rule="evenodd" d="M-145.993 72.0705L518.559 76.3626L-145.993 24.1427V72.0705Z" fill="#6DC7FF"/>
    <path opacity="0.5" fill-rule="evenodd" clip-rule="evenodd" d="M183.422 90.8485L-145.993 80.8337V96.0347L183.422 90.8485Z" fill="#6DC7FF"/>
    <path fill-rule="evenodd" clip-rule="evenodd" d="M740.493 185.273L534.654 199.58L491.555 194.215L626.218 185.273H740.493Z" fill="#090B21"/>
    <path fill-rule="evenodd" clip-rule="evenodd" d="M810.955 182.054L653.58 197.255L738.348 196.54L810.955 182.054Z" fill="#090B21"/>
    <path fill-rule="evenodd" clip-rule="evenodd" d="M725.829 186.168L626.039 185.81L498.708 195.109L491.555 194.215L626.218 185.273H740.493L725.829 186.168Z" fill="#0D0717"/>
    <path fill-rule="evenodd" clip-rule="evenodd" d="M-150.821 165.065L322.913 189.923L144.972 193.5L20.503 184.2L13.1707 186.167L82.3799 193.5L-151 183.843L-150.821 165.065Z" fill="#090B21"/>
    <path fill-rule="evenodd" clip-rule="evenodd" d="M-150.821 165.065V166.317L313.077 189.565L324.523 189.923L-150.821 165.065Z" fill="#0D0717"/>
    <path fill-rule="evenodd" clip-rule="evenodd" d="M13.1707 186.167L14.2437 187.598L66.8212 193.321L82.3799 193.5L13.1707 186.167Z" fill="#0D0717"/>
    <path fill-rule="evenodd" clip-rule="evenodd" d="M999.983 184.737L969.045 184.379L817.214 203.693L999.983 184.737Z" fill="#090B21"/>
    <path fill-rule="evenodd" clip-rule="evenodd" d="M993.724 185.273L965.826 185.094L833.13 202.084L817.214 203.693L969.045 184.379L999.983 184.737L993.724 185.273Z" fill="#0D0717"/>
    <path fill-rule="evenodd" clip-rule="evenodd" d="M130.308 158.806C130.308 158.806 132.633 133.411 125.837 117.673C119.22 101.757 112.245 95.3191 112.245 95.3191C112.245 95.3191 129.235 138.061 127.446 158.269C127.446 158.269 120.472 133.948 105.628 114.991C105.628 114.991 120.293 144.856 124.048 157.554C124.048 157.554 118.147 140.564 108.311 126.615C98.475 112.666 76.6571 105.334 76.6571 105.334C76.6571 105.334 116.359 129.119 121.366 157.017L130.308 158.806Z" fill="#00081F"/>
    <path fill-rule="evenodd" clip-rule="evenodd" d="M172.513 168.284L142.111 173.828L53.2297 170.43L86.4931 160.952L172.513 168.284Z" fill="#6A6500"/>
    <path opacity="0.8" fill-rule="evenodd" clip-rule="evenodd" d="M1379.47 168.463L1132.68 176.868H1030.74L1380.54 163.992L1379.47 168.463Z" fill="#6A6500"/>
    <path fill-rule="evenodd" clip-rule="evenodd" d="M1379.47 168.463L1391.99 119.283V112.309L1346.21 119.283L1297.03 147.003L1292.92 169.178L1379.47 168.463Z" fill="url(#paint0_linear_3_4609)"/>
    <path fill-rule="evenodd" clip-rule="evenodd" d="M1391.99 112.309L1389.66 120.535L1356.76 141.459L1304.72 146.466L1297.03 147.003L1346.21 119.283L1391.99 112.309Z" fill="#4A6AB2"/>
    <path fill-rule="evenodd" clip-rule="evenodd" d="M1352.11 168.463L1342.81 150.758L1280.22 146.466L1211.54 166.138L1209.94 170.251L1352.11 168.463Z" fill="url(#paint1_linear_3_4609)"/>
    <path fill-rule="evenodd" clip-rule="evenodd" d="M1206.9 172.397L1200.1 162.203L1173.81 154.692L1145.91 172.397H1206.9Z" fill="url(#paint2_linear_3_4609)"/>
    <path fill-rule="evenodd" clip-rule="evenodd" d="M1096.2 138.597L1092.62 145.93L1078.67 148.433L1069.55 139.849L1096.2 138.597Z" fill="url(#paint3_linear_3_4609)"/>
    <path fill-rule="evenodd" clip-rule="evenodd" d="M1023.59 160.416L1015.18 150.759L999.089 148.255L970.654 160.416H1023.59Z" fill="url(#paint4_linear_3_4609)"/>
    <path fill-rule="evenodd" clip-rule="evenodd" d="M94.183 142.353L115.107 137.524L171.976 163.992L172.513 168.284L84.7047 165.065L94.183 142.353Z" fill="url(#paint5_linear_3_4609)"/>
    <path fill-rule="evenodd" clip-rule="evenodd" d="M94.1829 142.353L107.774 157.196L153.556 166.495L171.976 163.992L115.107 137.524L94.1829 142.353Z" fill="#4A6AB2"/>
    <path fill-rule="evenodd" clip-rule="evenodd" d="M1200.1 162.203L1198.31 167.032L1154.14 168.463H1151.99L1173.81 154.692L1200.1 162.203Z" fill="#4A6AB2"/>
    <path fill-rule="evenodd" clip-rule="evenodd" d="M1342.81 150.758L1263.41 163.813L1219.23 168.463L1211.54 166.138L1280.22 146.466L1342.81 150.758Z" fill="#4A6AB2"/>
    <path fill-rule="evenodd" clip-rule="evenodd" d="M1073.66 141.816L1083.68 142.711L1096.2 138.597L1069.55 139.849L1073.66 141.816Z" fill="#4A6AB2"/>
    <path fill-rule="evenodd" clip-rule="evenodd" d="M1015.18 150.759L1012.32 152.726L981.026 155.945L999.089 148.255L1015.18 150.759Z" fill="#4A6AB2"/>
    <path opacity="0.5" fill-rule="evenodd" clip-rule="evenodd" d="M1356.76 141.459L1352.11 168.463L1342.81 150.758L1297.03 147.003L1356.76 141.459Z" fill="#01000A"/>
    <path opacity="0.5" fill-rule="evenodd" clip-rule="evenodd" d="M1266.09 163.813L1273.06 169.178L1209.94 170.251L1211.54 166.138L1219.23 168.463L1266.09 163.813Z" fill="#01000A"/>
    <path opacity="0.5" fill-rule="evenodd" clip-rule="evenodd" d="M1198.31 167.032V172.397H1154.14L1151.99 168.463L1198.31 167.032Z" fill="#01000A"/>
    <path opacity="0.5" fill-rule="evenodd" clip-rule="evenodd" d="M1012.32 152.725L1008.75 160.415H970.654L981.026 155.944L1012.32 152.725Z" fill="#01000A"/>
    <path opacity="0.5" fill-rule="evenodd" clip-rule="evenodd" d="M1083.68 142.711L1078.67 148.433L1069.55 139.849L1073.66 141.817L1083.68 142.711Z" fill="#01000A"/>
    <path opacity="0.5" fill-rule="evenodd" clip-rule="evenodd" d="M107.774 157.196L105.628 165.78L84.7047 165.065L94.183 142.353L107.774 157.196Z" fill="#01000A"/>
    <path fill-rule="evenodd" clip-rule="evenodd" d="M1365.88 135.557L1346.57 142.353L1355.51 148.433L1365.88 135.557Z" fill="#1A3678"/>
    <path fill-rule="evenodd" clip-rule="evenodd" d="M1272.89 162.383L1269.31 166.317L1259.47 164.35L1272.89 162.383Z" fill="#1A3678"/>
    <path fill-rule="evenodd" clip-rule="evenodd" d="M1328.86 163.455L1329.58 161.488L1325.82 162.382L1328.86 163.455Z" fill="#6E93CF"/>
    <path fill-rule="evenodd" clip-rule="evenodd" d="M1308.65 158.269L1305.79 160.415L1289.16 159.7L1294.88 158.269H1308.65Z" fill="#6E93CF"/>
    <path fill-rule="evenodd" clip-rule="evenodd" d="M1365.34 123.039L1360.51 125.722L1357.83 124.47L1363.55 122.681L1365.34 123.039Z" fill="#6E93CF"/>
    <path fill-rule="evenodd" clip-rule="evenodd" d="M1380.01 142.889L1380.54 145.751H1379.47L1378.04 143.784L1380.01 142.889Z" fill="#6E93CF"/>
    <path fill-rule="evenodd" clip-rule="evenodd" d="M131.56 157.733L126.195 153.262L115.107 149.685L131.56 157.733Z" fill="#6E93CF"/>
    <path fill-rule="evenodd" clip-rule="evenodd" d="M133.169 162.025L128.519 159.342L120.114 158.448L133.169 162.025Z" fill="#6E93CF"/>
    <path fill-rule="evenodd" clip-rule="evenodd" d="M115.107 137.524L120.114 141.459L116.537 142.353L107.775 139.313L115.107 137.524Z" fill="#6E93CF"/>
    <path opacity="0.8" fill-rule="evenodd" clip-rule="evenodd" d="M1023.59 160.415L986.749 163.813L934.53 163.992L970.654 160.415H1023.59Z" fill="#6A6500"/>
    <path d="M925.391 123.364L924.131 124.04L945.697 164.221L946.957 163.545L925.391 123.364Z" fill="#210036"/>
    <path d="M925.158 146.537L924.169 147.571L941.744 164.384L942.733 163.35L925.158 146.537Z" fill="#210036"/>
    <path d="M1303.96 135.558L1302.82 170.95L1304.25 170.996L1305.39 135.604L1303.96 135.558Z" fill="#210036"/>
    <path d="M1294.24 151.853L1292.83 152.104L1296.13 170.589L1297.53 170.338L1294.24 151.853Z" fill="#210036"/>
    <path d="M1269.3 158.241L1268.43 159.373L1285.97 172.933L1286.85 171.801L1269.3 158.241Z" fill="#210036"/>
    <defs>
        <linearGradient id="paint0_linear_3_4609" x1="1342.37" y1="169.211" x2="1342.37" y2="112.338" gradientUnits="userSpaceOnUse">
            <stop stop-color="#1D225A"/>
            <stop offset="1" stop-color="#3B2248"/>
        </linearGradient>
        <linearGradient id="paint1_linear_3_4609" x1="1280.94" y1="170.231" x2="1280.94" y2="146.406" gradientUnits="userSpaceOnUse">
            <stop stop-color="#1D225A"/>
            <stop offset="1" stop-color="#3B2248"/>
        </linearGradient>
        <linearGradient id="paint2_linear_3_4609" x1="1176.37" y1="172.35" x2="1176.37" y2="154.63" gradientUnits="userSpaceOnUse">
            <stop stop-color="#1D225A"/>
            <stop offset="1" stop-color="#3B2248"/>
        </linearGradient>
        <linearGradient id="paint3_linear_3_4609" x1="1082.89" y1="148.347" x2="1082.89" y2="138.521" gradientUnits="userSpaceOnUse">
            <stop stop-color="#1D225A"/>
            <stop offset="1" stop-color="#3B2248"/>
        </linearGradient>
        <linearGradient id="paint4_linear_3_4609" x1="997.125" y1="160.389" x2="997.125" y2="148.213" gradientUnits="userSpaceOnUse">
            <stop stop-color="#1D225A"/>
            <stop offset="1" stop-color="#3B2248"/>
        </linearGradient>
        <linearGradient id="paint5_linear_3_4609" x1="128.597" y1="168.269" x2="128.597" y2="137.559" gradientUnits="userSpaceOnUse">
            <stop stop-color="#1D225A"/>
            <stop offset="1" stop-color="#3B2248"/>
        </linearGradient>
    </defs>
</svg>
