<svg width="329" height="329" viewBox="0 0 329 329" fill="none" xmlns="http://www.w3.org/2000/svg">
<path fill-rule="evenodd" clip-rule="evenodd" d="M87.4516 90.7026C49.9027 128.252 50.2278 189.208 88.1018 227.082C125.976 264.956 186.932 265.118 224.481 227.732C262.03 190.183 261.705 129.227 223.831 91.3528C186.119 53.3163 125.001 53.1537 87.4516 90.7026Z" fill="url(#paint0_radial_3_4535)"/>
<path fill-rule="evenodd" clip-rule="evenodd" d="M98.6675 101.756C66.6453 133.778 66.9704 185.794 99.1552 218.141C131.503 250.489 183.518 250.651 215.541 218.629C247.563 186.607 247.238 134.591 215.053 102.244C182.868 70.0588 130.69 69.8962 98.6675 101.756Z" fill="url(#paint1_radial_3_4535)"/>
<path fill-rule="evenodd" clip-rule="evenodd" d="M85.1759 160.599C85.1759 121.099 117.198 89.0771 156.698 89.0771C190.183 89.0771 218.466 112.159 226.106 143.369C227.407 148.895 228.219 154.585 228.219 160.599C228.219 163.2 228.057 165.8 227.732 168.401C223.831 204.162 193.596 232.121 156.698 232.121C117.198 232.121 85.1759 200.098 85.1759 160.599Z" fill="white"/>
<g opacity="0.31">
<path fill-rule="evenodd" clip-rule="evenodd" d="M108.908 187.582C112.159 187.582 114.922 189.858 117.523 191.646C119.636 193.109 121.912 195.384 122.887 197.66C123.213 198.31 123.375 198.96 123.538 199.611C123.538 199.773 124.35 201.886 124.35 201.886C124.35 203.024 123.375 204.487 122.4 205.462C119.799 208.063 115.898 206.275 113.297 204.65C110.859 203.187 108.421 201.399 106.47 199.448C105.495 198.473 104.032 197.66 103.381 196.36C102.406 194.734 102.731 192.784 102.731 190.996C102.731 188.07 98.9926 184.656 103.544 184.006C105.332 183.681 111.021 185.306 111.346 187.419H108.908V187.582Z" fill="#635EB0"/>
<path fill-rule="evenodd" clip-rule="evenodd" d="M166.126 94.9288C166.938 94.116 167.914 94.6037 168.726 94.9288C169.539 95.2539 170.352 95.4164 171.327 95.4164C173.278 95.4164 174.903 95.4164 176.691 95.9041C178.479 96.3917 180.105 96.5543 181.73 97.0419C182.381 97.2045 183.031 97.5296 183.681 97.6921C184.006 97.8547 184.494 97.6921 184.981 97.6921C185.144 97.6921 185.144 98.0172 185.306 98.0172C185.632 98.0172 185.957 98.0172 186.282 98.1798C187.907 98.5049 189.533 98.9925 190.996 99.3176C191.646 99.4802 192.296 99.4802 192.946 99.9678C193.596 100.455 194.572 100.781 195.059 101.268C197.335 103.056 199.936 104.519 202.049 106.632C204 108.583 206.113 110.534 208.226 112.322C208.714 112.809 209.039 113.297 209.689 113.785C210.176 114.272 210.827 114.435 211.314 114.922C212.452 116.06 213.265 117.198 214.078 118.498C215.866 120.937 217.979 123.05 219.279 125.651C219.929 126.951 220.58 128.251 221.23 129.552C221.717 130.365 222.205 131.34 222.53 132.153C222.855 132.803 223.343 133.616 223.506 134.266C223.831 135.241 223.831 136.054 223.993 137.029C224.156 137.354 224.318 137.679 224.481 138.004C224.643 138.492 224.318 139.142 224.481 139.63C224.643 140.118 224.806 140.28 224.968 140.605C225.131 141.093 224.806 141.743 224.968 142.231C225.131 142.718 225.294 142.881 225.456 143.206C225.619 143.694 225.294 144.506 225.456 144.994C225.619 145.482 225.781 145.644 225.944 145.969C226.106 146.457 225.944 147.107 225.944 147.432C225.944 148.57 226.269 149.383 226.431 150.521C226.431 151.496 226.594 152.796 226.431 153.772C226.269 154.259 226.106 154.422 225.944 154.747C225.781 155.235 226.106 155.885 225.944 156.535C224.806 156.86 225.131 154.422 225.131 153.772C225.131 152.634 224.643 151.984 224.643 151.008C224.643 149.708 224.156 149.545 223.343 148.57C223.018 148.082 222.205 147.27 222.043 146.782C221.88 146.457 221.88 145.807 221.88 145.482C221.717 144.994 221.717 144.669 221.717 144.181C221.717 143.206 221.717 142.556 220.905 141.906C220.255 141.418 219.279 140.93 218.629 140.768C217.654 140.605 216.841 140.605 215.703 140.443C215.215 140.28 215.053 140.118 214.728 139.955C214.24 139.792 213.59 140.118 213.102 139.955C212.615 139.63 211.965 138.655 211.802 138.167C211.477 137.192 211.639 136.541 212.127 135.729C212.29 135.404 212.452 135.078 212.615 134.916C212.777 134.591 213.265 134.266 213.427 133.941C214.24 132.478 213.102 130.039 212.777 128.739C212.615 128.251 211.965 126.788 212.29 126.301C212.777 125.813 215.216 126.301 215.541 126.463C215.866 125.976 215.216 124.838 215.053 124.35C214.89 123.7 214.565 122.725 214.078 122.075C213.265 120.774 211.802 119.636 210.502 118.824C209.689 118.336 209.039 118.173 208.876 119.311C208.876 119.799 209.039 120.124 208.714 120.612C208.551 120.937 208.226 120.937 208.063 121.424C207.901 121.912 208.226 122.562 208.063 123.05C207.901 123.375 207.738 123.7 207.576 123.863C207.413 124.838 207.738 125.976 207.576 127.114C207.251 129.227 205.625 130.202 203.837 130.527C202.049 131.015 200.261 131.502 198.473 132.315C196.522 133.128 194.409 133.453 192.459 132.803C190.833 132.315 189.533 131.34 187.907 130.527C187.257 130.202 186.607 130.039 185.957 129.714C185.144 129.389 184.331 129.064 183.518 128.902C182.055 128.414 180.43 128.251 179.13 127.439C177.829 126.626 176.204 125.651 175.391 124.513C174.578 123.375 173.765 120.937 174.416 119.474C174.903 118.336 176.529 117.361 177.341 116.548C178.642 114.922 178.317 113.947 177.341 112.322C177.016 111.671 176.366 111.021 176.204 110.371C176.041 109.558 176.041 108.258 176.204 107.445C176.204 106.632 176.529 106.145 177.016 105.332C177.504 104.682 178.479 104.357 178.804 103.706C179.13 103.056 178.804 102.894 178.642 102.406C178.642 102.244 178.317 102.244 178.317 102.081C178.154 101.756 178.317 101.431 178.154 101.268C177.667 100.293 176.854 100.455 176.041 100.13C175.066 99.9678 174.253 99.9678 173.44 100.293C172.953 100.455 172.79 100.618 172.14 100.781C171.49 100.943 171.165 100.455 170.677 100.455C169.539 100.293 169.051 100.943 167.914 100.943C167.101 100.943 166.613 100.618 165.8 99.9678C165.313 99.4802 164.5 98.5049 164.5 97.6921C164.338 96.2292 165.475 95.7415 166.126 94.9288Z" fill="#635EB0"/>
<path fill-rule="evenodd" clip-rule="evenodd" d="M174.253 127.439C173.928 127.601 173.765 127.764 173.44 127.764C172.79 126.951 171.977 126.138 171.165 125.651C169.864 124.838 169.214 125.326 169.051 126.789C168.889 127.439 169.214 127.926 169.376 128.414C169.539 129.064 169.376 129.552 170.027 130.04C170.839 130.527 173.278 130.202 172.953 128.902L174.253 127.439Z" fill="#635EB0"/>
<path fill-rule="evenodd" clip-rule="evenodd" d="M215.866 183.193C216.028 182.868 216.353 182.706 216.678 182.868C216.841 183.681 216.841 184.819 216.678 185.632C216.678 185.957 216.353 186.282 216.191 186.769C216.191 187.257 216.191 187.582 216.028 187.907C215.866 188.395 215.541 189.37 215.378 189.858C215.215 190.671 215.215 191.158 214.89 191.971C214.565 192.621 214.403 193.596 214.078 194.409C213.753 195.059 213.427 195.71 213.102 196.36C212.29 197.66 211.639 198.961 210.827 200.261C209.364 202.537 207.738 204.975 205.625 206.763C204.812 207.413 204 207.901 203.187 208.388C202.862 208.551 202.699 208.876 202.374 209.039C202.049 209.201 201.724 209.201 201.561 209.526C200.911 210.014 198.961 211.965 197.985 211.477C198.635 209.851 199.611 208.226 200.423 206.763C201.236 204.975 203.024 204.975 204.325 203.675C206.438 201.724 202.862 200.749 201.724 199.936C200.586 199.123 200.586 197.985 200.586 196.847C200.586 195.71 200.423 194.734 200.098 193.596C199.936 193.109 199.773 192.621 199.611 192.134C199.611 191.808 199.611 191.483 199.611 191.321C199.611 191.158 199.448 190.996 199.286 190.833C198.961 189.533 199.448 188.883 199.936 187.745C200.423 186.769 200.586 185.632 201.399 184.981C202.212 184.169 203.187 184.494 204.325 184.494C204.975 184.494 205.463 184.656 206.113 184.819C206.6 184.981 207.251 185.144 207.576 185.306C208.063 185.469 208.551 185.469 209.039 185.469C209.526 185.632 209.689 185.957 210.339 185.632C211.152 185.469 211.802 184.656 212.615 184.331C213.753 184.006 214.89 184.656 216.028 184.331C216.191 183.844 216.191 183.844 215.866 183.193Z" fill="#635EB0"/>
<path fill-rule="evenodd" clip-rule="evenodd" d="M134.916 127.926C136.216 127.926 137.842 126.463 138.492 125.488C139.467 124.025 137.679 122.562 136.541 121.749C136.216 121.424 135.729 121.262 135.241 120.937C134.916 120.774 134.428 120.449 134.103 120.449C133.291 120.449 133.128 122.237 132.803 122.887C131.828 124.838 133.291 126.138 134.753 127.276V127.926H134.916Z" fill="#635EB0"/>
<path fill-rule="evenodd" clip-rule="evenodd" d="M128.739 125.001C128.902 125.001 128.902 124.838 129.064 124.838C129.552 125.813 128.739 126.789 128.739 127.601C128.089 127.601 126.789 126.464 126.789 125.813C126.789 124.676 128.414 124.676 129.064 124.676L128.739 125.001Z" fill="#635EB0"/>
<path fill-rule="evenodd" clip-rule="evenodd" d="M117.361 167.101C117.686 168.726 119.962 166.938 120.449 166.451C120.774 166.126 121.262 165.638 121.587 165.313C121.912 164.663 121.912 164.012 121.912 163.2C121.912 162.387 122.237 161.737 122.237 160.924C122.237 160.111 122.237 159.299 121.912 158.486C121.425 157.023 120.449 156.048 119.311 155.235C118.661 154.91 118.011 154.585 117.361 154.259C116.548 153.772 116.548 153.609 115.573 154.097C114.597 154.585 113.46 155.072 112.647 155.885C111.672 156.86 110.859 157.673 110.209 158.811C109.396 160.274 110.209 161.412 111.021 162.712C111.834 164.175 113.297 165.475 114.435 166.776C114.76 167.101 115.248 167.914 115.735 168.076C116.711 168.401 117.523 167.751 117.361 167.101Z" fill="#635EB0"/>
<path fill-rule="evenodd" clip-rule="evenodd" d="M117.686 172.953C117.848 172.953 117.848 172.953 118.011 172.953C118.011 173.44 118.986 174.741 118.336 175.066C117.848 175.391 117.198 174.416 116.873 174.09C116.385 173.603 116.06 172.628 116.548 171.977C117.036 171.49 118.173 171.815 118.011 172.79H117.686V172.953Z" fill="#635EB0"/>
<path fill-rule="evenodd" clip-rule="evenodd" d="M131.99 102.081C132.478 102.569 133.778 102.894 134.428 102.731C135.241 102.569 135.891 102.244 136.704 102.081C138.33 101.756 140.28 100.943 141.743 100.131C143.694 98.8302 147.27 95.4166 143.856 93.6286C142.393 92.9784 140.768 92.9784 139.142 92.9784C138.33 92.9784 137.842 93.3035 137.029 93.3035C136.054 93.3035 135.404 93.6286 134.591 93.7911C133.128 94.1162 131.828 94.6039 130.365 95.0915C129.064 95.5792 128.089 96.5545 127.276 97.3672C126.138 98.5051 125.976 100.131 127.114 101.268C127.764 101.919 128.414 101.756 129.389 101.756C130.365 102.081 131.34 102.081 131.99 102.081Z" fill="#635EB0"/>
<path fill-rule="evenodd" clip-rule="evenodd" d="M123.213 102.731C123.375 102.406 123.538 102.406 123.863 102.406C124.188 103.056 122.4 104.357 121.912 104.519C121.099 105.007 119.474 105.82 119.149 104.519C118.986 103.544 119.962 102.406 120.774 101.919C121.75 101.431 123.538 101.919 123.7 103.056L123.213 102.731Z" fill="#635EB0"/>
<path fill-rule="evenodd" clip-rule="evenodd" d="M96.3918 163.85C96.5544 163.85 96.5544 163.85 96.7169 163.85C97.042 162.549 96.5544 161.249 96.3918 159.949C96.3918 158.648 96.3918 157.348 96.3918 156.047C96.3918 154.747 96.3918 153.447 96.3918 152.146C96.3918 151.659 96.3918 151.171 96.3918 150.521C96.3918 150.358 96.2293 150.196 96.0667 149.871C96.0667 149.383 96.0667 149.058 96.0667 148.57C96.0667 147.92 96.0667 147.27 96.0667 146.782C96.0667 146.782 95.9042 146.132 95.7416 146.132C95.5791 145.807 95.7416 145.807 95.5791 145.319C94.9289 144.506 93.791 143.856 92.8157 144.344C92.003 144.669 91.3528 145.319 90.5401 145.807C89.4022 146.294 88.752 146.945 88.2644 148.083C87.7767 149.058 87.6142 150.033 87.2891 151.008C87.1265 151.333 86.964 151.334 86.964 151.659C86.964 151.984 86.964 152.309 86.964 152.634C86.964 152.796 86.8014 152.959 86.6389 153.284C86.6389 153.447 86.6389 153.772 86.6389 153.934C86.6389 154.097 86.4763 154.259 86.3138 154.259C86.1512 154.747 86.3138 155.235 86.3138 155.885C86.3138 156.535 85.9887 157.185 85.9887 157.835C85.9887 158.486 85.6636 158.973 85.6636 159.786C85.6636 160.436 85.6636 161.086 85.6636 161.737C85.6636 163.037 85.6636 164.337 85.6636 165.638C85.6636 166.288 85.8261 166.613 85.9887 167.263C86.1512 167.914 86.1512 168.564 86.3138 169.214C86.4763 169.702 86.8014 170.189 86.964 170.514C87.1265 171.165 87.2891 171.49 87.6142 172.14C88.2644 173.278 88.752 173.603 89.8899 174.09C91.0277 174.578 92.4906 174.416 93.4659 173.603C93.791 173.278 94.4412 172.79 94.4412 172.465C94.4412 172.14 94.4412 171.815 94.4412 171.49C94.4412 171.165 94.7663 171.002 94.7663 170.514C94.7663 169.214 94.4412 167.426 94.7663 166.288C94.9289 165.638 95.254 164.988 95.5791 164.337C95.7416 163.362 95.7416 162.712 96.3918 163.85Z" fill="#635EB0"/>
<path fill-rule="evenodd" clip-rule="evenodd" d="M98.0173 180.267C98.8301 180.592 99.3177 178.642 99.3177 177.992C99.3177 177.504 99.4803 176.854 98.9926 176.529C98.6675 176.366 97.6922 176.204 97.3671 176.366C96.3918 176.691 96.3918 178.154 96.3918 178.967C96.3918 179.942 97.2046 181.08 98.3424 180.918L98.0173 180.267Z" fill="#635EB0"/>
<path fill-rule="evenodd" clip-rule="evenodd" d="M208.876 181.568C208.876 181.73 208.876 181.73 208.876 181.893C209.201 181.893 209.364 182.218 209.689 182.218C210.014 182.38 210.502 182.218 210.827 182.218C211.639 182.218 212.127 182.543 212.777 182.543C213.102 182.543 213.59 182.543 213.915 182.543C214.403 182.543 214.565 182.38 214.728 182.218C215.378 182.055 216.028 182.055 216.678 181.73C217.654 181.08 218.304 179.78 218.954 178.804C219.604 177.504 220.254 176.204 220.254 174.741C220.254 174.09 220.254 173.603 219.929 172.953C219.604 172.465 219.279 171.977 219.117 171.327C218.466 170.027 217.979 169.539 216.516 169.539C215.053 169.539 213.753 170.352 212.615 171.002C212.127 171.327 211.639 171.815 211.152 172.14C210.664 172.465 210.176 172.627 209.851 173.115C209.039 174.253 208.876 175.716 208.551 177.016C208.388 177.667 208.226 178.642 208.388 179.455C208.388 179.617 208.551 179.617 208.551 179.78C208.551 180.105 208.551 180.267 208.551 180.592C208.713 180.918 209.039 181.243 208.876 181.568Z" fill="#635EB0"/>
<path fill-rule="evenodd" clip-rule="evenodd" d="M205.3 178.967C206.113 178.967 204.975 181.243 204.162 181.243C203.349 181.08 202.699 179.78 202.537 179.13C201.724 176.204 206.113 176.041 206.113 178.642L205.3 178.967Z" fill="#635EB0"/>
<path fill-rule="evenodd" clip-rule="evenodd" d="M194.734 173.928C194.734 173.278 195.547 172.79 195.71 172.302C195.872 171.652 195.547 171.165 195.222 170.677C194.897 170.352 194.409 169.702 193.759 169.702C193.271 169.864 192.946 170.514 192.459 170.84C191.646 171.49 190.02 172.14 191.158 173.44C191.646 173.928 192.296 174.09 192.946 174.253C193.921 174.416 194.409 174.09 195.059 173.603L194.734 173.928Z" fill="#635EB0"/>
<path fill-rule="evenodd" clip-rule="evenodd" d="M217.003 145.157C218.141 144.832 218.141 146.62 217.979 147.432C217.491 147.595 216.841 147.92 216.353 147.758C215.866 147.758 214.89 147.27 214.403 146.945C213.427 146.295 212.94 145.157 213.427 144.181C213.752 143.531 215.378 142.393 216.191 142.881C216.841 143.369 217.166 144.994 217.166 145.644L217.003 145.157Z" fill="#635EB0"/>
<path fill-rule="evenodd" clip-rule="evenodd" d="M125.813 214.565C126.138 215.215 126.301 215.378 125.813 215.866C125.326 216.191 124.838 216.191 124.188 216.028C123.375 215.866 122.562 214.89 122.075 214.24C121.749 213.915 121.262 213.102 121.262 212.777C121.262 212.289 121.424 211.964 121.749 211.477C122.237 210.827 123.05 210.176 123.7 209.526C124.675 208.551 125.163 209.201 125.976 210.014C126.626 210.664 127.114 211.477 127.601 212.289C127.764 212.452 128.251 213.427 128.251 213.59C128.251 213.915 128.089 214.403 127.764 214.89C127.276 215.703 126.138 216.516 125.326 216.841L125.813 214.565Z" fill="#635EB0"/>
<path fill-rule="evenodd" clip-rule="evenodd" d="M118.011 211.964C118.173 211.964 118.173 211.964 118.336 211.964C118.661 211.152 118.336 210.501 117.361 210.339C116.548 210.176 115.573 210.501 115.41 211.152C115.248 211.802 115.898 212.452 116.385 212.777C117.198 213.265 117.848 213.427 118.011 212.29V211.964Z" fill="#635EB0"/>
<path fill-rule="evenodd" clip-rule="evenodd" d="M122.887 129.227C122.725 128.902 123.213 127.926 123.213 127.601C123.375 127.114 123.538 126.464 123.863 126.138C124.025 125.651 124.188 125.163 124.35 124.513C124.513 123.863 124.675 123.375 124.838 122.887C125.001 121.75 123.7 120.774 122.562 121.099C121.587 121.262 120.774 122.075 119.962 122.725C119.474 123.05 119.311 123.05 118.986 123.7C118.661 124.188 118.661 124.838 118.499 125.488C118.336 126.138 118.173 126.464 118.173 127.114C118.173 127.764 118.173 128.414 118.173 129.064C118.986 132.153 122.237 130.202 122.887 128.089V129.227Z" fill="#635EB0"/>
<path fill-rule="evenodd" clip-rule="evenodd" d="M113.134 108.258C113.459 109.396 111.346 110.208 110.534 110.208C109.721 110.208 109.558 110.046 109.233 109.396C108.908 108.745 108.908 108.258 109.233 107.608C109.883 106.632 111.834 105.982 112.972 106.47C114.272 106.957 113.785 108.745 112.484 109.071L113.134 108.258Z" fill="#635EB0"/>
<path fill-rule="evenodd" clip-rule="evenodd" d="M127.114 131.502C127.439 131.502 127.926 132.153 128.089 132.478C128.252 132.803 128.089 133.128 128.089 133.453C128.089 133.616 128.252 133.778 128.414 134.103C128.414 134.428 128.252 134.753 128.414 135.079C128.414 135.404 128.739 135.729 128.739 136.054C128.902 136.704 128.577 137.354 128.739 138.004C128.902 138.655 129.389 139.305 129.064 139.955C128.739 140.443 128.089 140.443 127.439 140.28C126.951 140.28 126.463 139.955 125.813 139.955C125.163 139.793 124.35 139.467 123.7 138.98C122.725 138.33 121.75 137.679 121.587 136.542C121.424 135.566 121.587 133.778 121.75 132.803C121.912 131.99 122.4 130.852 123.212 130.365C124.025 129.877 125.976 130.202 126.789 130.527L127.114 131.502Z" fill="#635EB0"/>
<path fill-rule="evenodd" clip-rule="evenodd" d="M119.636 132.153V132.315C119.961 130.69 118.011 130.852 117.686 132.153C117.198 133.453 119.311 133.941 119.636 132.478V132.153Z" fill="#635EB0"/>
<path fill-rule="evenodd" clip-rule="evenodd" d="M96.8795 141.906C96.3919 142.881 96.2293 143.694 96.3919 144.669C96.5544 145.644 97.2046 146.62 97.5297 147.595C97.8548 148.408 97.8548 148.895 97.6923 149.708C97.5297 150.683 97.5297 151.659 97.6923 152.634C97.8548 153.772 98.1799 154.91 98.3425 156.047C98.505 157.348 98.3425 158.648 98.3425 159.949C98.3425 162.549 99.6429 164.5 101.919 165.638C102.731 165.963 103.382 165.963 104.194 165.963C105.007 165.963 105.332 165.8 105.982 165.15C106.632 164.5 106.795 163.687 107.283 162.874C107.608 162.062 107.933 161.574 108.258 160.761C108.583 159.624 107.933 157.673 108.908 156.698C109.233 156.373 109.558 156.21 109.883 156.047C110.209 155.722 110.534 155.397 110.859 155.072C111.672 154.259 111.672 153.609 112.159 152.634C112.484 151.821 112.809 151.008 113.46 150.358C114.272 149.545 115.41 148.895 116.223 148.082C116.873 147.432 116.873 146.782 116.873 145.807C116.873 145.319 117.036 144.669 116.873 144.019C116.711 143.369 116.385 143.043 116.385 142.231C116.385 141.418 116.385 140.93 116.711 140.28C117.036 139.305 117.361 138.492 117.198 137.517C117.036 135.404 115.735 133.453 114.76 131.665C114.272 130.852 113.785 130.04 113.622 129.064C113.46 127.926 113.785 126.789 114.11 125.651C114.435 124.513 115.085 123.7 115.735 122.887C116.385 121.912 117.036 120.937 117.848 120.287C118.824 119.474 119.636 118.986 120.774 118.824C121.262 118.824 121.587 118.661 122.075 118.661C122.562 118.661 123.05 118.824 123.7 118.986C125.813 119.149 127.764 117.848 129.877 117.686C130.852 117.686 131.665 117.848 132.315 118.336C132.966 118.661 133.616 118.986 134.428 119.149C136.216 119.474 138.492 118.499 139.955 119.961C140.443 120.449 140.605 121.262 141.093 121.749C142.068 122.562 143.206 122.887 144.507 123.212C146.295 123.538 148.083 123.863 149.708 124.513C151.334 125.163 152.959 126.301 154.585 126.951C156.21 127.601 158.811 127.276 160.599 126.789C161.574 126.463 163.2 125.976 163.687 125C164.012 124.35 164.175 123.863 164.663 123.375C165.15 122.887 165.8 122.887 166.451 122.725C168.564 122.237 169.539 120.612 170.027 118.661C170.352 117.198 170.189 115.898 170.352 114.435C170.677 112.809 171.165 111.509 171.815 110.046C172.302 108.908 172.465 107.77 172.465 106.632C172.465 105.495 172.302 103.869 171.165 103.219C170.352 102.731 169.214 102.731 168.239 102.894C166.613 103.056 164.988 103.381 163.362 102.894C161.899 102.406 161.249 101.431 160.599 100.13C159.624 98.5049 159.299 96.5543 158.323 94.9288C157.51 93.6284 156.535 92.4906 155.072 92.4906C154.097 92.4906 153.284 92.9782 152.634 93.791C151.821 94.7663 151.171 96.0667 150.358 97.2045C149.708 98.1798 148.895 99.1551 147.92 99.8053C146.295 100.943 144.344 101.106 142.556 101.756C140.605 102.569 138.98 103.869 137.029 104.357C134.428 105.007 131.665 104.519 129.064 104.844C127.439 105.007 125.976 105.495 124.35 105.982C123.05 106.47 122.075 107.283 120.937 107.77C119.799 108.42 118.661 109.071 117.361 109.558C116.06 110.046 114.76 110.371 113.46 110.859C112.159 111.346 111.184 111.997 109.883 112.322C108.421 112.647 106.958 113.459 105.82 114.435C104.682 115.41 103.707 116.548 103.056 117.848C102.569 118.661 102.406 119.636 101.919 120.449C101.431 121.262 100.781 121.912 100.293 122.725C99.3178 123.7 98.505 124.675 97.5297 125.651C96.5544 126.951 95.7417 128.577 95.0915 130.04C94.4413 131.177 94.2788 132.315 93.7911 133.453C93.3035 134.591 92.8158 135.729 92.1656 136.867C91.8405 137.517 91.1903 138.33 91.1903 139.142C91.1903 139.467 91.3529 139.792 91.3529 140.118C91.5154 140.443 91.678 140.768 91.8405 141.093C92.0031 141.743 91.8405 142.556 92.3282 143.206C92.6533 143.694 93.3034 143.531 93.6285 143.206C94.1162 142.881 94.6038 142.556 95.0915 142.556C95.0915 141.906 96.2293 141.418 96.8795 141.906Z" fill="#635EB0"/>
</g>
<g opacity="0.18">
<path fill-rule="evenodd" clip-rule="evenodd" d="M152.634 101.756C153.122 101.106 151.171 103.381 151.171 103.707C151.171 103.869 151.171 104.194 151.334 104.357C151.334 104.682 151.334 105.17 151.171 105.495C150.846 106.47 150.033 107.445 149.545 108.42C149.383 108.746 149.058 109.071 148.733 109.396C148.408 109.721 148.245 110.046 147.92 110.371C146.945 111.346 146.132 112.159 145.319 113.134C143.856 114.922 143.694 117.198 145.157 119.149C145.482 119.636 146.457 120.449 147.107 120.449C147.595 120.612 147.92 120.449 148.408 120.287C149.22 120.124 150.033 119.961 150.683 119.799C151.659 119.474 152.309 119.799 153.122 120.124C153.609 120.287 154.097 120.449 154.422 120.612C154.91 120.774 155.235 121.099 155.722 121.262C156.698 121.587 157.673 121.262 158.486 120.937C159.136 120.612 159.786 120.449 160.274 120.124C161.086 119.636 161.899 119.474 162.712 119.149C163.362 118.824 163.85 118.499 164.5 118.011C164.988 117.686 165.15 117.198 165.638 116.711C166.613 115.573 166.288 113.947 166.776 112.647C167.101 111.509 168.076 110.534 168.239 109.396C168.401 108.258 167.914 107.12 167.101 106.307C166.288 105.332 164.988 104.844 163.85 104.844C162.875 104.844 162.062 104.844 161.086 104.844C160.436 104.844 159.786 104.519 159.298 104.194C158.648 103.869 157.998 103.381 157.348 103.056C156.698 102.731 156.373 102.244 155.722 101.919C155.072 101.593 154.747 101.268 154.097 101.268C153.284 101.756 152.959 102.081 152.634 101.756Z" fill="#635EB0"/>
<path fill-rule="evenodd" clip-rule="evenodd" d="M132.153 108.908C131.99 107.933 131.665 107.12 130.69 106.958C130.202 106.795 129.227 106.958 128.739 106.958C127.764 107.12 127.114 107.77 126.463 108.258C125.651 108.746 123.863 109.233 124.025 110.534C124.188 111.672 125.326 112.159 126.138 112.809C126.951 113.46 127.601 114.272 128.739 114.11C130.039 113.947 130.852 112.972 131.502 111.997C131.828 111.346 132.315 110.696 132.478 109.884C132.64 109.396 132.64 108.258 131.828 108.095L132.153 108.908Z" fill="#635EB0"/>
<path fill-rule="evenodd" clip-rule="evenodd" d="M147.27 147.92C147.107 147.27 146.945 146.457 146.132 146.457C145.644 146.457 144.994 146.457 144.669 146.457C144.019 146.62 143.531 147.107 142.881 147.432C142.231 147.758 140.93 148.245 141.093 149.221C141.255 150.033 142.068 150.521 142.718 151.009C143.369 151.496 143.856 152.146 144.832 151.984C145.807 151.821 146.457 151.009 146.945 150.358C147.27 149.871 147.595 149.383 147.757 148.733C147.92 148.408 147.757 147.432 147.27 147.432V147.92Z" fill="#635EB0"/>
<path fill-rule="evenodd" clip-rule="evenodd" d="M106.958 151.496C106.795 150.846 106.632 150.358 105.982 150.196C105.657 150.196 105.007 150.196 104.682 150.196C104.032 150.358 103.707 150.683 103.056 151.008C102.569 151.334 101.268 151.659 101.431 152.471C101.593 153.122 102.406 153.609 102.894 153.934C103.544 154.422 103.869 154.91 104.682 154.91C105.495 154.747 106.145 154.097 106.47 153.447C106.632 152.959 106.958 152.634 107.12 152.146C107.283 151.821 107.12 151.008 106.632 151.008L106.958 151.496Z" fill="#635EB0"/>
<path fill-rule="evenodd" clip-rule="evenodd" d="M92.1655 147.92C92.003 147.432 91.8404 147.107 91.3528 146.782C91.0277 147.107 90.54 147.27 90.2149 147.595C89.5647 148.245 88.9145 149.22 88.752 150.196C88.752 150.846 88.752 151.496 88.752 152.146C88.752 152.959 88.5894 153.772 88.4269 154.747C88.4269 156.373 88.2643 157.836 89.7273 158.973C90.7026 159.624 91.6779 159.624 92.4906 158.811C93.4659 157.836 93.791 156.698 93.9536 155.397C94.1161 154.747 94.1161 154.097 94.1161 153.447C94.2787 152.959 94.2787 152.471 94.4412 151.821C94.7663 150.683 94.7663 149.383 94.1161 148.408C93.9536 147.27 93.4659 146.62 92.1655 147.92Z" fill="#635EB0"/>
<path fill-rule="evenodd" clip-rule="evenodd" d="M182.218 105.982C181.243 106.145 180.105 106.47 179.129 106.795C179.129 107.77 178.642 108.583 178.967 109.721C179.455 111.021 180.592 111.997 181.08 113.297C181.893 115.898 179.942 118.011 179.617 120.449C179.129 123.863 183.843 123.7 185.956 123.863C187.419 124.025 188.882 124.188 190.183 124.838C191.646 125.651 192.946 126.463 194.734 126.789C196.36 127.114 197.985 126.463 199.448 125.651C200.911 124.838 202.211 123.05 202.862 121.424C203.187 120.449 202.862 118.986 202.537 118.011C202.049 116.548 200.911 115.573 199.773 114.597C198.96 113.785 198.473 112.809 197.66 111.997C196.685 111.021 195.709 109.883 194.897 108.908C193.434 107.283 191.808 105.495 189.858 104.357C188.395 103.544 187.094 103.381 185.469 103.544C183.843 103.706 182.543 104.357 182.218 105.982Z" fill="#635EB0"/>
</g>
<path opacity="0.3" d="M164.5 329C255.351 329 329 255.351 329 164.5C329 73.6492 255.351 0 164.5 0C73.6492 0 0 73.6492 0 164.5C0 255.351 73.6492 329 164.5 329Z" fill="url(#paint2_radial_3_4535)"/>
<defs>
<radialGradient id="paint0_radial_3_4535" cx="0" cy="0" r="1" gradientUnits="userSpaceOnUse" gradientTransform="translate(156.022 159.125) rotate(-135) scale(96.8643 96.0403)">
<stop stop-color="#31229D"/>
<stop offset="0.1554" stop-color="#302199"/>
<stop offset="0.3155" stop-color="#2C1E8C"/>
<stop offset="0.4779" stop-color="#251A78"/>
<stop offset="0.6419" stop-color="#1C145B"/>
<stop offset="0.8071" stop-color="#110C36"/>
<stop offset="0.9711" stop-color="#030209"/>
<stop offset="1"/>
</radialGradient>
<radialGradient id="paint1_radial_3_4535" cx="0" cy="0" r="1" gradientUnits="userSpaceOnUse" gradientTransform="translate(157.164 160.268) rotate(-135) scale(82.6349 81.932)">
<stop stop-color="#0037A4"/>
<stop offset="0.1534" stop-color="#0036A0"/>
<stop offset="0.31" stop-color="#003294"/>
<stop offset="0.4681" stop-color="#002B7F"/>
<stop offset="0.6272" stop-color="#002163"/>
<stop offset="0.7871" stop-color="#00153E"/>
<stop offset="0.9456" stop-color="#000611"/>
<stop offset="1"/>
</radialGradient>
<radialGradient id="paint2_radial_3_4535" cx="0" cy="0" r="1" gradientUnits="userSpaceOnUse" gradientTransform="translate(164.576 164.576) scale(164.576)">
<stop stop-color="#473EFF"/>
<stop offset="1"/>
</radialGradient>
</defs>
</svg>
