<svg width="1440" height="216" viewBox="0 0 1440 216" fill="none" xmlns="http://www.w3.org/2000/svg">
<path fill-rule="evenodd" clip-rule="evenodd" d="M1474.53 121.187L1464.12 56.6775L1455.47 99.684L1450.35 77.9248L1422.82 188.257L1474.53 183.137V121.187Z" fill="#09001D"/>
<path fill-rule="evenodd" clip-rule="evenodd" d="M1259.76 140.387L1249.53 75.877L1240.88 118.883L1235.76 96.8682L1206.47 205.665L1259.76 202.337V140.387Z" fill="#09001D"/>
<path fill-rule="evenodd" clip-rule="evenodd" d="M1394.06 190.817L1383.47 160.354L1369 150.114L1381.53 153.442L1365.29 98.1482L1357.71 93.7963H1364.41L1342.53 16.4869L1328.06 98.1482L1343.41 81.2527L1343.94 90.7244L1328.06 103.78V106.852L1344.65 93.7963L1326.82 113.252L1312.71 197.729L1394.06 190.817Z" fill="#09001D"/>
<path fill-rule="evenodd" clip-rule="evenodd" d="M1309.18 197.985L1296.29 158.05L1277.94 145.763L1277.41 141.155L1294 151.394L1293.29 146.019L1277.94 135.267L1292.06 140.387L1268.24 50.0219L1261 93.7964L1270 90.9805L1261.18 94.8203L1259.76 107.108L1269.12 96.3563L1269.29 98.9162L1259.76 108.9L1247.41 202.849L1309.18 197.985Z" fill="#09001D"/>
<path fill-rule="evenodd" clip-rule="evenodd" d="M1198.18 197.712L1179.82 107.092L1173.29 152.402L1181.24 158.546L1173.29 153.682L1166.06 199.248L1198.18 197.712Z" fill="#09001D"/>
<path fill-rule="evenodd" clip-rule="evenodd" d="M1060.18 197.184L1041.82 126.019L1035.29 161.601L1043.24 166.465L1035.29 162.625L1028.06 198.208L1060.18 197.184Z" fill="#09001D"/>
<path fill-rule="evenodd" clip-rule="evenodd" d="M276.647 124.515L286.882 59.7493L295.529 102.756L300.647 80.9965L329.941 189.537L276.647 186.209V124.515Z" fill="#09001D"/>
<path fill-rule="evenodd" clip-rule="evenodd" d="M142.177 174.689L152.941 144.226L167.412 133.987L154.882 137.315L171.118 82.0206L178.706 77.6687H172L193.882 0.615356L208.353 82.0206L193 65.1252L192.471 74.5968L208.353 87.6524V90.7243L191.588 77.6687L209.588 97.1241L223.706 181.857L142.177 174.689Z" fill="#09001D"/>
<path fill-rule="evenodd" clip-rule="evenodd" d="M528.823 207.184L533.059 195.152L538.882 191.057L533.765 192.337L540.294 170.321L543.471 168.529H540.647L549.471 137.554L555.294 170.321L549.118 163.41L548.941 167.249L555.294 172.369V173.649L548.588 168.529L555.647 176.209L561.294 210L528.823 207.184Z" fill="#09001D"/>
<path fill-rule="evenodd" clip-rule="evenodd" d="M227.235 182.113L240.118 142.178L258.471 129.635L259 125.027L242.412 135.267L243.118 129.891L258.471 119.139L244.176 124.259L268.176 33.8942L275.412 77.6687L266.412 74.8528L275.235 78.6926L276.647 91.2362L267.294 80.2286L267.118 82.7885L276.647 92.7722L289 186.721L227.235 182.113Z" fill="#09001D"/>
<path fill-rule="evenodd" clip-rule="evenodd" d="M79.3529 157.794L92.2353 117.859L110.588 105.316L110.941 100.708L94.5294 110.947L95.2353 105.572L110.588 95.076L96.2941 100.196L120.294 9.83093L127.353 53.3494L118.529 50.5335L127.353 54.3734L128.765 66.917L119.235 55.9094L119.059 58.7253L128.765 68.7089L141.118 162.658L79.3529 157.794Z" fill="#09001D"/>
<path fill-rule="evenodd" clip-rule="evenodd" d="M338.235 186.721L356.588 96.1002L363.118 141.411L355.177 147.81L363.118 142.947L370.353 188.257L338.235 186.721Z" fill="#09001D"/>
<path fill-rule="evenodd" clip-rule="evenodd" d="M32 159.633L60.5714 20L70.7363 89.8167L59.7472 77.9833L70.7363 92.1833L82 162L32 159.633Z" fill="#09001D"/>
<path fill-rule="evenodd" clip-rule="evenodd" d="M1416.65 202.848L1398.29 112.228L1391.59 157.538L1399.53 163.682L1391.59 159.074L1384.35 204.384L1416.65 202.848Z" fill="#09001D"/>
<path fill-rule="evenodd" clip-rule="evenodd" d="M370 183.905L382.353 176.993L420.471 189.537H449.412L464.765 198.753L370.353 188.257L370 183.905Z" fill="#09001D"/>
<path fill-rule="evenodd" clip-rule="evenodd" d="M595.706 210.017L606.118 198.753L623.941 206.945L626.059 212.064L595.706 210.017Z" fill="#09001D"/>
<path fill-rule="evenodd" clip-rule="evenodd" d="M586.882 209.504L585.294 206.944L583.176 203.104L578.765 205.408V208.224L586.882 209.504Z" fill="#09001D"/>
<path fill-rule="evenodd" clip-rule="evenodd" d="M720.294 215.392V212.064L717.118 209.504L710.588 215.648L720.294 215.392Z" fill="#09001D"/>
<path fill-rule="evenodd" clip-rule="evenodd" d="M1025.06 212.576L1021.35 208.224L1014.82 209.76V213.344L1025.06 212.576Z" fill="#09001D"/>
<path fill-rule="evenodd" clip-rule="evenodd" d="M293.706 130.574L264.235 109.838H252.588L240.412 102.671L124.471 92.4309L101 80.9113H98.7059L41.8824 53.5203H-52V63.5039C-52 63.7599 214.471 124.43 293.706 130.574Z" fill="#09001D"/>
</svg>
