<svg width="1440" height="1024" viewBox="0 0 1440 1024" fill="none" xmlns="http://www.w3.org/2000/svg">
<path fill-rule="evenodd" clip-rule="evenodd" d="M-511.812 1012.8H1868.13V0L-511.812 0V1012.8Z" fill="url(#paint0_linear_3_2342)"/>
<path d="M45.3597 262.058C47.4752 262.058 47.4752 258.885 45.3597 258.885C43.5087 258.885 43.5087 262.058 45.3597 262.058Z" fill="#6DCAFF"/>
<path d="M152.193 397.186C154.308 397.186 154.308 394.013 152.193 394.013C150.342 394.013 150.342 397.186 152.193 397.186Z" fill="#6DCAFF"/>
<path d="M386.221 528.083C388.336 528.083 388.336 524.91 386.221 524.91C384.105 524.91 384.105 528.083 386.221 528.083Z" fill="#6DCAFF"/>
<path d="M725.495 411.73C727.611 411.73 727.611 408.557 725.495 408.557C723.38 408.557 723.38 411.73 725.495 411.73Z" fill="#6DCAFF"/>
<path d="M1094.92 310.98C1097.03 310.98 1097.03 307.806 1094.92 307.806C1092.8 307.806 1092.8 310.98 1094.92 310.98Z" fill="#6DCAFF"/>
<path d="M1050.75 535.488C1052.87 535.488 1052.87 532.314 1050.75 532.314C1048.9 532.314 1048.9 535.488 1050.75 535.488Z" fill="#6DCAFF"/>
<path d="M333.333 124.55C335.448 124.55 335.448 121.377 333.333 121.377C331.217 121.377 331.217 124.55 333.333 124.55Z" fill="#6DCAFF"/>
<path d="M413.458 228.739C415.574 228.739 415.574 225.566 413.458 225.566C411.607 225.566 411.607 228.739 413.458 228.739Z" fill="#6DCAFF"/>
<path d="M519.762 142.532C521.878 142.532 521.878 139.359 519.762 139.359C517.647 139.359 517.647 142.532 519.762 142.532Z" fill="#6DCAFF"/>
<path d="M577.939 190.66C580.054 190.66 580.054 187.487 577.939 187.487C575.823 187.487 575.823 190.66 577.939 190.66Z" fill="#6DCAFF"/>
<path d="M950.532 78.5383C952.648 78.5383 952.648 75.365 950.532 75.365C948.681 75.365 948.681 78.5383 950.532 78.5383Z" fill="#6DCAFF"/>
<path d="M1365.44 64.523C1367.55 64.523 1367.55 61.3497 1365.44 61.3497C1363.58 61.3497 1363.58 64.523 1365.44 64.523Z" fill="#6DCAFF"/>
<path d="M1381.57 519.357C1383.68 519.357 1383.68 516.184 1381.57 516.184C1379.45 516.184 1379.45 519.357 1381.57 519.357Z" fill="#6DCAFF"/>
<path d="M918.535 625.661C920.65 625.661 920.65 622.488 918.535 622.488C916.419 622.488 916.419 625.661 918.535 625.661Z" fill="#6DCAFF"/>
<path d="M581.905 771.895C584.021 771.895 584.021 768.722 581.905 768.722C579.79 768.722 579.79 771.895 581.905 771.895Z" fill="#6DCAFF"/>
<path d="M521.613 876.084C523.729 876.084 523.729 872.911 521.613 872.911C519.762 872.911 519.762 876.084 521.613 876.084Z" fill="#6DCAFF"/>
<path d="M100.892 848.054C103.007 848.054 103.007 844.88 100.892 844.88C98.7763 844.88 98.7763 848.054 100.892 848.054Z" fill="#6DCAFF"/>
<path d="M78.9436 845.938C81.0591 845.938 81.0591 842.765 78.9436 842.765C76.8281 842.765 76.8281 845.938 78.9436 845.938Z" fill="#6DCAFF"/>
<path d="M219.096 791.993C221.211 791.993 221.211 788.82 219.096 788.82C216.98 788.82 216.98 791.993 219.096 791.993Z" fill="#6DCAFF"/>
<path d="M675.781 845.145C677.896 845.145 677.896 841.972 675.781 841.972C673.665 841.972 673.665 845.145 675.781 845.145Z" fill="#6DCAFF"/>
<path d="M343.382 743.865C345.497 743.865 345.497 740.692 343.382 740.692C341.266 740.692 341.266 743.865 343.382 743.865Z" fill="#6DCAFF"/>
<path d="M195.032 447.165C197.147 447.165 197.147 443.992 195.032 443.992C192.916 443.992 192.916 447.165 195.032 447.165Z" fill="#6DCAFF"/>
<path d="M339.415 340.861C341.531 340.861 341.531 337.688 339.415 337.688C337.3 337.952 337.3 340.861 339.415 340.861Z" fill="#6DCAFF"/>
<path d="M188.95 134.599C191.065 134.599 191.065 131.426 188.95 131.426C187.099 131.426 187.099 134.599 188.95 134.599Z" fill="#6DCAFF"/>
<path d="M892.62 238.788C894.736 238.788 894.736 235.615 892.62 235.615C890.505 235.615 890.505 238.788 892.62 238.788Z" fill="#6DCAFF"/>
<path d="M920.651 369.156C922.766 369.156 922.766 365.983 920.651 365.983C918.535 365.983 918.535 369.156 920.651 369.156Z" fill="#6DCAFF"/>
<path d="M830.477 489.211C832.593 489.211 832.593 486.038 830.477 486.038C828.362 486.038 828.362 489.211 830.477 489.211Z" fill="#6DCAFF"/>
<path d="M634 469.114C636.115 469.114 636.115 465.94 634 465.94C631.884 466.205 631.884 469.114 634 469.114Z" fill="#6DCAFF"/>
<path d="M603.853 324.995C605.969 324.995 605.969 321.821 603.853 321.821C602.002 321.821 602.002 324.995 603.853 324.995Z" fill="#6DCAFF"/>
<path d="M738.188 206.791C740.304 206.791 740.304 203.617 738.188 203.617C736.073 203.617 736.073 206.791 738.188 206.791Z" fill="#6DCAFF"/>
<path d="M782.349 112.386C784.465 112.386 784.465 109.213 782.349 109.213C780.234 109.477 780.234 112.386 782.349 112.386Z" fill="#6DCAFF"/>
<path d="M1084.87 148.614C1086.98 148.614 1086.98 145.441 1084.87 145.441C1082.75 145.441 1082.75 148.614 1084.87 148.614Z" fill="#6DCAFF"/>
<path d="M1026.69 307.013C1028.81 307.013 1028.81 303.84 1026.69 303.84C1024.84 303.84 1024.84 307.013 1026.69 307.013Z" fill="#6DCAFF"/>
<path d="M1108.93 212.608C1111.05 212.608 1111.05 209.435 1108.93 209.435C1106.82 209.435 1106.82 212.608 1108.93 212.608Z" fill="#6DCAFF"/>
<path d="M1193.02 76.4228C1195.14 76.4228 1195.14 73.2495 1193.02 73.2495C1191.17 73.2495 1191.17 76.4228 1193.02 76.4228Z" fill="#6DCAFF"/>
<path d="M1315.46 182.727C1317.57 182.727 1317.57 179.554 1315.46 179.554C1313.34 179.554 1313.34 182.727 1315.46 182.727Z" fill="#6DCAFF"/>
<path d="M1253.31 286.916C1255.43 286.916 1255.43 283.742 1253.31 283.742C1251.2 283.742 1251.2 286.916 1253.31 286.916Z" fill="#6DCAFF"/>
<path d="M1225.28 481.278C1227.4 481.278 1227.4 478.104 1225.28 478.104C1223.17 478.104 1223.17 481.278 1225.28 481.278Z" fill="#6DCAFF"/>
<path d="M1367.55 603.448C1369.67 603.448 1369.67 600.275 1367.55 600.275C1365.44 600.275 1365.44 603.448 1367.55 603.448Z" fill="#6DCAFF"/>
<path d="M1411.71 413.053C1413.83 413.053 1413.83 409.879 1411.71 409.879C1409.6 409.879 1409.6 413.053 1411.71 413.053Z" fill="#6DCAFF"/>
<path d="M1361.47 340.861C1363.58 340.861 1363.58 337.688 1361.47 337.688C1359.35 337.952 1359.35 340.861 1361.47 340.861Z" fill="#6DCAFF"/>
<path d="M1245.12 627.512C1247.23 627.512 1247.23 624.339 1245.12 624.339C1243.27 624.339 1243.27 627.512 1245.12 627.512Z" fill="#6DCAFF"/>
<path d="M1062.92 757.88C1065.03 757.88 1065.03 754.707 1062.92 754.707C1060.8 754.707 1060.8 757.88 1062.92 757.88Z" fill="#6DCAFF"/>
<path d="M1072.97 834.038C1075.08 834.038 1075.08 830.865 1072.97 830.865C1070.85 830.865 1070.85 834.038 1072.97 834.038Z" fill="#6DCAFF"/>
<path d="M946.566 834.038C948.681 834.038 948.681 830.865 946.566 830.865C944.714 830.865 944.714 834.038 946.566 834.038Z" fill="#6DCAFF"/>
<path d="M686.094 661.625C688.209 661.625 688.209 658.451 686.094 658.451C683.978 658.451 683.978 661.625 686.094 661.625Z" fill="#6DCAFF"/>
<path d="M509.714 555.32C511.829 555.32 511.829 552.147 509.714 552.147C507.598 552.147 507.598 555.32 509.714 555.32Z" fill="#6DCAFF"/>
<path d="M225.178 587.582C227.293 587.582 227.293 584.409 225.178 584.409C223.062 584.409 223.062 587.582 225.178 587.582Z" fill="#6DCAFF"/>
<path d="M104.858 491.326C106.974 491.326 106.974 488.153 104.858 488.153C102.743 488.153 102.743 491.326 104.858 491.326Z" fill="#6DCAFF"/>
<path d="M169.117 653.691C171.232 653.691 171.232 650.518 169.117 650.518C167.001 650.518 167.001 653.691 169.117 653.691Z" fill="#6DCAFF"/>
<path d="M177.05 565.369C179.166 565.369 179.166 562.196 177.05 562.196C174.935 562.196 174.935 565.369 177.05 565.369Z" fill="#6DCAFF"/>
<path d="M26.5847 789.877C28.7002 789.877 28.7002 786.704 26.5847 786.704C24.7336 786.704 24.7336 789.877 26.5847 789.877Z" fill="#6DCAFF"/>
<path d="M114.907 779.828C117.023 779.828 117.023 776.655 114.907 776.655C112.792 776.655 112.792 779.828 114.907 779.828Z" fill="#6DCAFF"/>
<path d="M337.3 405.119C339.415 405.119 339.415 401.946 337.3 401.946C335.449 401.946 335.449 405.119 337.3 405.119Z" fill="#6DCAFF"/>
<path d="M239.193 252.803C241.309 252.803 241.309 249.63 239.193 249.63C237.078 249.63 237.078 252.803 239.193 252.803Z" fill="#6DCAFF"/>
<path d="M459.735 74.3073C461.85 74.3073 461.85 71.134 459.735 71.134C457.619 71.3985 457.619 74.3073 459.735 74.3073Z" fill="#6DCAFF"/>
<path d="M539.86 326.846C541.975 326.846 541.975 323.672 539.86 323.672C537.744 323.672 537.744 326.846 539.86 326.846Z" fill="#6DCAFF"/>
<path d="M828.362 276.867C830.477 276.867 830.477 273.694 828.362 273.694C826.246 273.694 826.246 276.867 828.362 276.867Z" fill="#6DCAFF"/>
<path d="M910.602 32.2615C912.718 32.2615 912.718 29.0883 910.602 29.0883C908.487 29.0883 908.487 32.2615 910.602 32.2615Z" fill="#6DCAFF"/>
<path d="M1159.17 42.3101C1161.29 42.3101 1161.29 39.1368 1159.17 39.1368C1157.06 39.1368 1157.06 42.3101 1159.17 42.3101Z" fill="#6DCAFF"/>
<path d="M430.646 436.059C432.762 436.059 432.762 432.885 430.646 432.885C428.531 433.15 428.531 436.059 430.646 436.059Z" fill="#6DCAFF"/>
<path d="M412.4 462.238C414.516 462.238 414.516 459.065 412.4 459.065C410.549 459.065 410.549 462.238 412.4 462.238Z" fill="#6DCAFF"/>
<path d="M420.598 435.266C422.713 435.266 422.713 432.092 420.598 432.092C418.482 432.092 418.482 435.266 420.598 435.266Z" fill="#6DCAFF"/>
<path d="M382.519 460.123C384.634 460.123 384.634 456.949 382.519 456.949C380.403 456.949 380.403 460.123 382.519 460.123Z" fill="#6DCAFF"/>
<path d="M343.382 498.202C345.497 498.202 345.497 495.029 343.382 495.029C341.266 495.029 341.266 498.202 343.382 498.202Z" fill="#6DCAFF"/>
<path d="M340.473 453.247C342.588 453.247 342.588 450.074 340.473 450.074C338.357 450.074 338.357 453.247 340.473 453.247Z" fill="#6DCAFF"/>
<path d="M384.37 484.187C386.485 484.187 386.485 481.013 384.37 481.013C382.519 481.013 382.519 484.187 384.37 484.187Z" fill="#6DCAFF"/>
<path d="M364.537 503.226C366.652 503.226 366.652 500.053 364.537 500.053C362.421 500.053 362.421 503.226 364.537 503.226Z" fill="#6DCAFF"/>
<path d="M357.397 483.393C359.513 483.393 359.513 480.22 357.397 480.22C355.282 480.22 355.282 483.393 357.397 483.393Z" fill="#6DCAFF"/>
<path d="M323.284 535.488C325.4 535.488 325.4 532.314 323.284 532.314C321.169 532.314 321.169 535.488 323.284 535.488Z" fill="#6DCAFF"/>
<path d="M268.281 575.418C270.397 575.418 270.397 572.245 268.281 572.245C266.166 572.245 266.166 575.418 268.281 575.418Z" fill="#6DCAFF"/>
<path d="M160.919 639.676C163.035 639.676 163.035 636.503 160.919 636.503C159.068 636.503 159.068 639.676 160.919 639.676Z" fill="#6DCAFF"/>
<path d="M178.901 608.473C181.017 608.473 181.017 605.299 178.901 605.299C177.05 605.299 177.05 608.473 178.901 608.473Z" fill="#6DCAFF"/>
<path d="M142.937 625.661C145.053 625.661 145.053 622.488 142.937 622.488C140.822 622.488 140.822 625.661 142.937 625.661Z" fill="#6DCAFF"/>
<path d="M123.898 653.691C126.013 653.691 126.013 650.518 123.898 650.518C121.782 650.518 121.782 653.691 123.898 653.691Z" fill="#6DCAFF"/>
<path d="M87.9343 659.509C90.0498 659.509 90.0498 656.336 87.9343 656.336C85.8188 656.6 85.8188 659.509 87.9343 659.509Z" fill="#6DCAFF"/>
<path d="M78.9436 678.549C81.0591 678.549 81.0591 675.375 78.9436 675.375C76.8281 675.64 76.8281 678.549 78.9436 678.549Z" fill="#6DCAFF"/>
<path d="M88.7275 689.655C90.843 689.655 90.843 686.482 88.7275 686.482C86.8765 686.482 86.8765 689.655 88.7275 689.655Z" fill="#6DCAFF"/>
<path d="M100.892 677.755C103.007 677.755 103.007 674.582 100.892 674.582C98.7763 674.582 98.7763 677.755 100.892 677.755Z" fill="#6DCAFF"/>
<path d="M91.901 672.731C94.0165 672.731 94.0165 669.558 91.901 669.558C89.7855 669.558 89.7855 672.731 91.901 672.731Z" fill="#6DCAFF"/>
<path d="M60.6974 707.637C62.8129 707.637 62.8129 704.464 60.6974 704.464C58.8463 704.464 58.8463 707.637 60.6974 707.637Z" fill="#6DCAFF"/>
<path d="M24.7336 708.695C26.8491 708.695 26.8491 705.521 24.7336 705.521C22.6181 705.521 22.6181 708.695 24.7336 708.695Z" fill="#6DCAFF"/>
<path d="M6.75179 737.783C8.8673 737.783 8.8673 734.61 6.75179 734.61C4.63628 734.61 4.63628 737.783 6.75179 737.783Z" fill="#6DCAFF"/>
<path d="M499.665 360.958C501.78 360.958 501.78 357.785 499.665 357.785C497.549 357.785 497.549 360.958 499.665 360.958Z" fill="#6DCAFF"/>
<path d="M439.637 326.846C441.753 326.846 441.753 323.672 439.637 323.672C437.522 323.672 437.522 326.846 439.637 326.846Z" fill="#6DCAFF"/>
<path d="M458.677 369.156C460.792 369.156 460.792 365.983 458.677 365.983C456.561 365.983 456.561 369.156 458.677 369.156Z" fill="#6DCAFF"/>
<path d="M488.558 417.019C490.674 417.019 490.674 413.846 488.558 413.846C486.707 414.11 486.707 417.019 488.558 417.019Z" fill="#6DCAFF"/>
<path d="M528.753 378.94C530.869 378.94 530.869 375.767 528.753 375.767C526.638 376.031 526.638 378.94 528.753 378.94Z" fill="#6DCAFF"/>
<path d="M490.674 383.964C492.79 383.964 492.79 380.791 490.674 380.791C488.559 380.791 488.559 383.964 490.674 383.964Z" fill="#6DCAFF"/>
<path d="M467.668 385.022C469.783 385.022 469.783 381.849 467.668 381.849C465.552 381.849 465.552 385.022 467.668 385.022Z" fill="#6DCAFF"/>
<path d="M477.717 245.663C479.832 245.663 479.832 242.49 477.717 242.49C475.601 242.754 475.601 245.663 477.717 245.663Z" fill="#6DCAFF"/>
<path d="M504.689 174.529C506.804 174.529 506.804 171.356 504.689 171.356C502.573 171.356 502.573 174.529 504.689 174.529Z" fill="#6DCAFF"/>
<path d="M576.881 207.584C578.997 207.584 578.997 204.411 576.881 204.411C574.766 204.675 574.766 207.584 576.881 207.584Z" fill="#6DCAFF"/>
<path d="M535.893 208.642C538.008 208.642 538.008 205.469 535.893 205.469C533.777 205.469 533.777 208.642 535.893 208.642Z" fill="#6DCAFF"/>
<path d="M576.881 265.761C578.997 265.761 578.997 262.587 576.881 262.587C574.766 262.587 574.766 265.761 576.881 265.761Z" fill="#6DCAFF"/>
<path d="M575.823 340.068C577.939 340.068 577.939 336.895 575.823 336.895C573.708 336.895 573.708 340.068 575.823 340.068Z" fill="#6DCAFF"/>
<path d="M627.917 337.952C630.033 337.952 630.033 334.779 627.917 334.779C625.802 334.779 625.802 337.952 627.917 337.952Z" fill="#6DCAFF"/>
<path d="M662.03 228.739C664.145 228.739 664.145 225.566 662.03 225.566C659.914 225.566 659.914 228.739 662.03 228.739Z" fill="#6DCAFF"/>
<path d="M628.975 188.545C631.091 188.545 631.091 185.371 628.975 185.371C626.86 185.636 626.86 188.545 628.975 188.545Z" fill="#6DCAFF"/>
<path d="M621.042 243.812C623.157 243.812 623.157 240.639 621.042 240.639C618.926 240.639 618.926 243.812 621.042 243.812Z" fill="#6DCAFF"/>
<path d="M588.781 233.763C590.896 233.763 590.896 230.59 588.781 230.59C586.93 230.59 586.93 233.763 588.781 233.763Z" fill="#6DCAFF"/>
<path d="M614.96 192.776C617.076 192.776 617.076 189.602 614.96 189.602C612.845 189.602 612.845 192.776 614.96 192.776Z" fill="#6DCAFF"/>
<path d="M555.726 241.697C557.841 241.697 557.841 238.523 555.726 238.523C553.875 238.523 553.875 241.697 555.726 241.697Z" fill="#6DCAFF"/>
<path d="M571.857 299.873C573.972 299.873 573.972 296.7 571.857 296.7C569.741 296.7 569.741 299.873 571.857 299.873Z" fill="#6DCAFF"/>
<path d="M619.984 286.916C622.1 286.916 622.1 283.742 619.984 283.742C617.869 283.742 617.869 286.916 619.984 286.916Z" fill="#6DCAFF"/>
<path d="M561.808 290.882C563.923 290.882 563.923 287.709 561.808 287.709C559.692 287.709 559.692 290.882 561.808 290.882Z" fill="#6DCAFF"/>
<path d="M577.939 371.007C580.054 371.007 580.054 367.834 577.939 367.834C575.823 367.834 575.823 371.007 577.939 371.007Z" fill="#6DCAFF"/>
<path d="M561.808 407.235C563.923 407.235 563.923 404.062 561.808 404.062C559.692 404.062 559.692 407.235 561.808 407.235Z" fill="#6DCAFF"/>
<path d="M524.787 407.235C526.902 407.235 526.902 404.062 524.787 404.062C522.671 404.062 522.671 407.235 524.787 407.235Z" fill="#6DCAFF"/>
<path d="M511.829 454.305C513.944 454.305 513.944 451.132 511.829 451.132C509.713 451.132 509.713 454.305 511.829 454.305Z" fill="#6DCAFF"/>
<path d="M462.643 457.214C464.759 457.214 464.759 454.041 462.643 454.041C460.528 454.041 460.528 457.214 462.643 457.214Z" fill="#6DCAFF"/>
<path d="M455.504 439.232C457.619 439.232 457.619 436.059 455.504 436.059C453.652 436.059 453.652 439.232 455.504 439.232Z" fill="#6DCAFF"/>
<path d="M354.488 321.028C356.604 321.028 356.604 317.855 354.488 317.855C352.373 317.855 352.373 321.028 354.488 321.028Z" fill="#6DCAFF"/>
<path d="M366.388 364.925C368.503 364.925 368.503 361.752 366.388 361.752C364.272 361.752 364.272 364.925 366.388 364.925Z" fill="#6DCAFF"/>
<path d="M328.309 365.983C330.424 365.983 330.424 362.809 328.309 362.809C326.193 362.809 326.193 365.983 328.309 365.983Z" fill="#6DCAFF"/>
<path d="M291.287 373.916C293.403 373.916 293.403 370.743 291.287 370.743C289.172 371.007 289.172 373.916 291.287 373.916Z" fill="#6DCAFF"/>
<path d="M319.318 450.074C321.433 450.074 321.433 446.901 319.318 446.901C317.202 447.165 317.202 450.074 319.318 450.074Z" fill="#6DCAFF"/>
<path d="M295.254 471.229C297.369 471.229 297.369 468.056 295.254 468.056C293.138 468.056 293.138 471.229 295.254 471.229Z" fill="#6DCAFF"/>
<path d="M265.108 450.074C267.224 450.074 267.224 446.901 265.108 446.901C263.257 447.165 263.257 450.074 265.108 450.074Z" fill="#6DCAFF"/>
<path d="M290.23 415.168C292.345 415.168 292.345 411.995 290.23 411.995C288.114 411.995 288.114 415.168 290.23 415.168Z" fill="#6DCAFF"/>
<path d="M384.37 525.439C386.485 525.439 386.485 522.266 384.37 522.266C382.519 522.266 382.519 525.439 384.37 525.439Z" fill="#6DCAFF"/>
<path d="M350.257 521.472C352.373 521.472 352.373 518.299 350.257 518.299C348.406 518.299 348.406 521.472 350.257 521.472Z" fill="#6DCAFF"/>
<path d="M417.425 543.421C419.54 543.421 419.54 540.248 417.425 540.248C415.573 540.248 415.573 543.421 417.425 543.421Z" fill="#6DCAFF"/>
<path d="M432.497 488.153C434.613 488.153 434.613 484.98 432.497 484.98C430.646 485.244 430.646 488.153 432.497 488.153Z" fill="#6DCAFF"/>
<path d="M532.72 496.351C534.835 496.351 534.835 493.177 532.72 493.177C530.604 493.177 530.604 496.351 532.72 496.351Z" fill="#6DCAFF"/>
<path d="M409.491 572.509C411.607 572.509 411.607 569.336 409.491 569.336C407.376 569.336 407.376 572.509 409.491 572.509Z" fill="#6DCAFF"/>
<path d="M356.339 593.4C358.455 593.4 358.455 590.226 356.339 590.226C354.488 590.226 354.488 593.4 356.339 593.4Z" fill="#6DCAFF"/>
<path d="M361.364 631.479C363.479 631.479 363.479 628.305 361.364 628.305C359.248 628.305 359.248 631.479 361.364 631.479Z" fill="#6DCAFF"/>
<path d="M402.616 632.536C404.731 632.536 404.731 629.363 402.616 629.363C400.5 629.363 400.5 632.536 402.616 632.536Z" fill="#6DCAFF"/>
<path d="M469.519 530.463C471.634 530.463 471.634 527.29 469.519 527.29C467.668 527.29 467.668 530.463 469.519 530.463Z" fill="#6DCAFF"/>
<path d="M985.967 369.156C988.082 369.156 988.082 365.983 985.967 365.983C984.116 365.983 984.116 369.156 985.967 369.156Z" fill="#6DCAFF"/>
<path d="M1008.71 422.572C1010.82 422.572 1010.82 419.399 1008.71 419.399C1006.59 419.399 1006.59 422.572 1008.71 422.572Z" fill="#6DCAFF"/>
<path d="M936.517 483.922C938.632 483.922 938.632 480.749 936.517 480.749C934.666 480.749 934.666 483.922 936.517 483.922Z" fill="#6DCAFF"/>
<path d="M884.422 438.439C886.538 438.439 886.538 435.266 884.422 435.266C882.571 435.266 882.571 438.439 884.422 438.439Z" fill="#6DCAFF"/>
<path d="M942.07 506.664C944.186 506.664 944.186 503.491 942.07 503.491C939.955 503.491 939.955 506.664 942.07 506.664Z" fill="#6DCAFF"/>
<path d="M955.292 483.922C957.408 483.922 957.408 480.749 955.292 480.749C953.177 480.749 953.177 483.922 955.292 483.922Z" fill="#6DCAFF"/>
<path d="M980.678 509.308C982.793 509.308 982.793 506.135 980.678 506.135C978.562 506.135 978.562 509.308 980.678 509.308Z" fill="#6DCAFF"/>
<path d="M1283.99 494.5C1286.1 494.5 1286.1 491.326 1283.99 491.326C1281.87 491.591 1281.87 494.5 1283.99 494.5Z" fill="#6DCAFF"/>
<path d="M1254.64 515.919C1256.75 515.919 1256.75 512.746 1254.64 512.746C1252.52 512.746 1252.52 515.919 1254.64 515.919Z" fill="#6DCAFF"/>
<path d="M1333.44 511.953C1335.55 511.953 1335.55 508.779 1333.44 508.779C1331.32 508.779 1331.32 511.953 1333.44 511.953Z" fill="#6DCAFF"/>
<path d="M1344.02 491.855C1346.13 491.855 1346.13 488.682 1344.02 488.682C1342.17 488.682 1342.17 491.855 1344.02 491.855Z" fill="#6DCAFF"/>
<path d="M1360.15 568.014C1362.26 568.014 1362.26 564.84 1360.15 564.84C1358.03 564.84 1358.03 568.014 1360.15 568.014Z" fill="#6DCAFF"/>
<path d="M1330.79 618.786C1332.91 618.786 1332.91 615.613 1330.79 615.613C1328.68 615.613 1328.68 618.786 1330.79 618.786Z" fill="#6DCAFF"/>
<path d="M1441.59 656.336C1443.71 656.336 1443.71 653.163 1441.59 653.163C1439.74 653.163 1439.74 656.336 1441.59 656.336Z" fill="#6DCAFF"/>
<path d="M976.712 703.141C978.827 703.141 978.827 699.968 976.712 699.968C974.596 699.968 974.596 703.141 976.712 703.141Z" fill="#6DCAFF"/>
<path d="M871.201 642.85C873.316 642.85 873.316 639.676 871.201 639.676C869.085 639.676 869.085 642.85 871.201 642.85Z" fill="#6DCAFF"/>
<path d="M768.334 672.202C770.45 672.202 770.45 669.029 768.334 669.029C766.219 669.293 766.219 672.202 768.334 672.202Z" fill="#6DCAFF"/>
<path d="M782.878 724.561C784.994 724.561 784.994 721.388 782.878 721.388C781.027 721.388 781.027 724.561 782.878 724.561Z" fill="#6DCAFF"/>
<path d="M746.915 743.072C749.03 743.072 749.03 739.898 746.915 739.898C744.799 739.898 744.799 743.072 746.915 743.072Z" fill="#6DCAFF"/>
<path d="M767.012 787.233C769.127 787.233 769.127 784.06 767.012 784.06C764.896 784.06 764.896 787.233 767.012 787.233Z" fill="#6DCAFF"/>
<path d="M764.368 812.619C766.483 812.619 766.483 809.446 764.368 809.446C762.252 809.446 762.252 812.619 764.368 812.619Z" fill="#6DCAFF"/>
<path d="M871.201 716.363C873.316 716.363 873.316 713.19 871.201 713.19C869.085 713.19 869.085 716.363 871.201 716.363Z" fill="#6DCAFF"/>
<path d="M827.039 596.044C829.155 596.044 829.155 592.871 827.039 592.871C824.924 593.135 824.924 596.044 827.039 596.044Z" fill="#6DCAFF"/>
<path d="M746.915 522.794C749.03 522.794 749.03 519.621 746.915 519.621C744.799 519.621 744.799 522.794 746.915 522.794Z" fill="#6DCAFF"/>
<path d="M692.176 570.658C694.291 570.658 694.291 567.485 692.176 567.485C690.06 567.749 690.06 570.658 692.176 570.658Z" fill="#6DCAFF"/>
<path d="M724.173 578.855C726.289 578.855 726.289 575.682 724.173 575.682C722.058 575.682 722.058 578.855 724.173 578.855Z" fill="#6DCAFF"/>
<path d="M603.853 655.014C605.969 655.014 605.969 651.84 603.853 651.84C602.002 651.84 602.002 655.014 603.853 655.014Z" fill="#6DCAFF"/>
<path d="M554.403 642.85C556.519 642.85 556.519 639.676 554.403 639.676C552.552 639.676 552.552 642.85 554.403 642.85Z" fill="#6DCAFF"/>
<path d="M461.057 655.014C463.172 655.014 463.172 651.84 461.057 651.84C458.941 651.84 458.941 655.014 461.057 655.014Z" fill="#6DCAFF"/>
<path d="M483.534 707.108C485.65 707.108 485.65 703.935 483.534 703.935C481.683 703.935 481.683 707.108 483.534 707.108Z" fill="#6DCAFF"/>
<path d="M426.151 689.655C428.267 689.655 428.267 686.482 426.151 686.482C424.3 686.482 424.3 689.655 426.151 689.655Z" fill="#6DCAFF"/>
<path d="M316.674 651.047C318.789 651.047 318.789 647.874 316.674 647.874C314.558 647.874 314.558 651.047 316.674 651.047Z" fill="#6DCAFF"/>
<path d="M412.929 744.394C415.045 744.394 415.045 741.22 412.929 741.22C410.814 741.22 410.814 744.394 412.929 744.394Z" fill="#6DCAFF"/>
<path d="M465.023 755.236C467.139 755.236 467.139 752.063 465.023 752.063C462.908 752.062 462.908 755.236 465.023 755.236Z" fill="#6DCAFF"/>
<path d="M561.279 755.236C563.395 755.236 563.395 752.063 561.279 752.063C559.164 752.062 559.164 755.236 561.279 755.236Z" fill="#6DCAFF"/>
<path d="M483.534 827.427C485.65 827.427 485.65 824.254 483.534 824.254C481.683 824.254 481.683 827.427 483.534 827.427Z" fill="#6DCAFF"/>
<path d="M585.078 871.324C587.194 871.324 587.194 868.151 585.078 868.151C583.227 868.151 583.227 871.324 585.078 871.324Z" fill="#6DCAFF"/>
<path d="M678.69 799.133C680.805 799.133 680.805 795.959 678.69 795.959C676.574 796.224 676.574 799.133 678.69 799.133Z" fill="#6DCAFF"/>
<path d="M659.914 724.561C662.03 724.561 662.03 721.388 659.914 721.388C658.063 721.388 658.063 724.561 659.914 724.561Z" fill="#6DCAFF"/>
<path d="M-1.44568 599.482C0.669823 599.482 0.669823 596.308 -1.44568 596.308C-3.29675 596.308 -3.29675 599.482 -1.44568 599.482Z" fill="#6DCAFF"/>
<path d="M56.7307 529.405C58.8462 529.405 58.8462 526.232 56.7307 526.232C54.6152 526.232 54.6152 529.405 56.7307 529.405Z" fill="#6DCAFF"/>
<path d="M22.618 409.086C24.7335 409.086 24.7335 405.913 22.618 405.913C20.767 405.913 20.767 409.086 22.618 409.086Z" fill="#6DCAFF"/>
<path d="M1044.94 423.101C1047.05 423.101 1047.05 419.928 1044.94 419.928C1042.82 419.928 1042.82 423.101 1044.94 423.101Z" fill="#6DCAFF"/>
<path d="M1062.92 395.071C1065.03 395.071 1065.03 391.898 1062.92 391.898C1060.8 391.898 1060.8 395.071 1062.92 395.071Z" fill="#6DCAFF"/>
<path d="M980.678 415.168C982.793 415.168 982.793 411.995 980.678 411.995C978.562 411.995 978.562 415.168 980.678 415.168Z" fill="#6DCAFF"/>
<path d="M1004.74 475.196C1006.86 475.196 1006.86 472.022 1004.74 472.022C1002.63 472.022 1002.63 475.196 1004.74 475.196Z" fill="#6DCAFF"/>
<path d="M1072.97 483.393C1075.08 483.393 1075.08 480.22 1072.97 480.22C1070.85 480.22 1070.85 483.393 1072.97 483.393Z" fill="#6DCAFF"/>
<path d="M1111.05 385.022C1113.16 385.022 1113.16 381.849 1111.05 381.849C1108.93 381.849 1108.93 385.022 1111.05 385.022Z" fill="#6DCAFF"/>
<path d="M1426.52 245.663C1429.43 245.663 1429.69 240.903 1426.52 240.903C1423.35 240.903 1423.35 245.663 1426.52 245.663Z" fill="white"/>
<path d="M1374.43 81.447C1377.34 81.447 1377.6 76.6871 1374.43 76.6871C1371.25 76.6871 1371.25 81.447 1374.43 81.447Z" fill="white"/>
<path d="M1390.03 319.706C1392.94 319.706 1393.2 314.946 1390.03 314.946C1387.12 314.946 1387.12 319.706 1390.03 319.706Z" fill="white"/>
<path d="M1239.3 344.827C1242.21 344.827 1242.47 340.068 1239.3 340.068C1236.13 340.068 1236.13 344.827 1239.3 344.827Z" fill="white"/>
<path d="M1128.5 135.921C1131.41 135.921 1131.67 131.161 1128.5 131.161C1125.59 131.161 1125.59 135.921 1128.5 135.921Z" fill="white"/>
<path d="M666.261 325.788C669.17 325.788 669.434 321.028 666.261 321.028C663.088 321.293 663.088 325.788 666.261 325.788Z" fill="white"/>
<path d="M696.936 369.949C699.844 369.949 700.109 365.189 696.936 365.189C694.027 365.189 694.027 369.949 696.936 369.949Z" fill="white"/>
<path d="M508.656 382.113C511.564 382.113 511.829 377.354 508.656 377.354C505.482 377.354 505.482 382.113 508.656 382.113Z" fill="white"/>
<path d="M722.322 232.441C725.231 232.441 725.495 227.682 722.322 227.682C719.413 227.682 719.413 232.441 722.322 232.441Z" fill="white"/>
<path d="M849.252 227.152C852.161 227.152 852.426 222.393 849.252 222.393C846.344 222.393 846.344 227.152 849.252 227.152Z" fill="white"/>
<path d="M913.511 321.822C916.42 321.822 916.684 317.062 913.511 317.062C910.338 317.062 910.338 321.822 913.511 321.822Z" fill="white"/>
<path d="M385.692 621.166C388.601 621.166 388.865 616.406 385.692 616.406C382.519 616.406 382.519 621.166 385.692 621.166Z" fill="white"/>
<path d="M210.634 550.296C213.543 550.296 213.807 545.536 210.634 545.536C207.725 545.536 207.725 550.296 210.634 550.296Z" fill="white"/>
<path d="M36.8977 156.283C39.8065 156.283 40.0709 151.523 36.8977 151.523C33.9889 151.523 33.9889 156.283 36.8977 156.283Z" fill="white"/>
<path d="M191.858 117.411C194.767 117.411 195.032 112.651 191.858 112.651C188.95 112.651 188.95 117.411 191.858 117.411Z" fill="white"/>
<path d="M79.7368 224.244C82.6456 224.244 82.91 219.484 79.7368 219.484C76.5635 219.748 76.5635 224.244 79.7368 224.244Z" fill="white"/>
<path d="M124.427 649.989C127.336 649.989 127.6 645.229 124.427 645.229C121.518 645.229 121.518 649.989 124.427 649.989Z" fill="white"/>
<path d="M84.4966 710.017C87.4055 710.017 87.6699 705.257 84.4966 705.257C81.3234 705.257 81.3234 710.017 84.4966 710.017Z" fill="white"/>
<path d="M336.771 724.032C339.68 724.032 339.944 719.272 336.771 719.272C333.862 719.272 333.862 724.032 336.771 724.032Z" fill="white"/>
<path d="M278.859 681.986C281.768 681.986 282.032 677.227 278.859 677.227C275.686 677.227 275.686 681.986 278.859 681.986Z" fill="white"/>
<path d="M412.929 786.175C415.838 786.175 416.102 781.415 412.929 781.415C410.02 781.415 410.02 786.175 412.929 786.175Z" fill="white"/>
<path d="M855.863 565.634C858.772 565.634 859.037 560.874 855.863 560.874C852.954 560.874 852.954 565.634 855.863 565.634Z" fill="white"/>
<path d="M1080.37 289.031C1083.28 289.031 1083.54 284.271 1080.37 284.271C1077.46 284.536 1077.46 289.031 1080.37 289.031Z" fill="white"/>
<path d="M1132.47 333.192C1135.37 333.192 1135.64 328.432 1132.47 328.432C1129.56 328.432 1129.56 333.192 1132.47 333.192Z" fill="white"/>
<path d="M990.462 320.764C992.578 320.764 992.578 317.59 990.462 317.59C988.611 317.59 988.611 320.764 990.462 320.764Z" fill="#475293"/>
<path d="M902.14 432.357C904.255 432.357 904.255 429.183 902.14 429.183C900.024 429.183 900.024 432.357 902.14 432.357Z" fill="#475293"/>
<path d="M708.306 540.776C710.422 540.776 710.422 537.603 708.306 537.603C706.455 537.867 706.455 540.776 708.306 540.776Z" fill="#475293"/>
<path d="M427.209 444.521C429.324 444.521 429.324 441.348 427.209 441.348C425.358 441.348 425.358 444.521 427.209 444.521Z" fill="#475293"/>
<path d="M121.254 360.958C123.369 360.958 123.369 357.785 121.254 357.785C119.138 357.785 119.138 360.958 121.254 360.958Z" fill="#475293"/>
<path d="M157.746 546.858C159.862 546.858 159.862 543.685 157.746 543.685C155.631 543.949 155.631 546.858 157.746 546.858Z" fill="#475293"/>
<path d="M1055.78 616.67C1057.89 616.67 1057.89 613.497 1055.78 613.497C1053.93 613.497 1053.93 616.67 1055.78 616.67Z" fill="#475293"/>
<path d="M1349.83 475.725C1351.95 475.725 1351.95 472.551 1349.83 472.551C1347.72 472.551 1347.72 475.725 1349.83 475.725Z" fill="#475293"/>
<path d="M752.204 206.791C754.319 206.791 754.319 203.617 752.204 203.617C750.088 203.617 750.088 206.791 752.204 206.791Z" fill="#475293"/>
<path d="M685.565 292.997C687.681 292.997 687.681 289.824 685.565 289.824C683.714 289.824 683.714 292.997 685.565 292.997Z" fill="#475293"/>
<path d="M597.772 221.599C599.887 221.599 599.887 218.426 597.772 218.426C595.656 218.426 595.656 221.599 597.772 221.599Z" fill="#475293"/>
<path d="M549.644 261.529C551.759 261.529 551.759 258.356 549.644 258.356C547.528 258.356 547.528 261.529 549.644 261.529Z" fill="#475293"/>
<path d="M240.78 168.447C242.895 168.447 242.895 165.274 240.78 165.274C238.664 165.274 238.664 168.447 240.78 168.447Z" fill="#475293"/>
<path d="M267.224 621.695C269.339 621.695 269.339 618.521 267.224 618.521C265.372 618.521 265.372 621.695 267.224 621.695Z" fill="#475293"/>
<path d="M546.206 742.807C548.321 742.807 548.321 739.634 546.206 739.634C544.09 739.634 544.09 742.807 546.206 742.807Z" fill="#475293"/>
<path d="M595.92 829.279C598.036 829.279 598.036 826.105 595.92 826.105C594.069 826.105 594.069 829.279 595.92 829.279Z" fill="#475293"/>
<path d="M944.715 806.008C946.83 806.008 946.83 802.834 944.715 802.834C942.599 802.834 942.599 806.008 944.715 806.008Z" fill="#475293"/>
<path d="M1172.13 674.846C1174.25 674.846 1174.25 671.673 1172.13 671.673C1170.02 671.673 1170.02 674.846 1172.13 674.846Z" fill="#475293"/>
<path d="M1095.71 392.691C1097.82 392.691 1097.82 389.518 1095.71 389.518C1093.59 389.518 1093.59 392.691 1095.71 392.691Z" fill="#475293"/>
<path d="M1376.28 113.708C1378.39 113.708 1378.39 110.535 1376.28 110.535C1374.16 110.535 1374.16 113.708 1376.28 113.708Z" fill="#475293"/>
<path d="M1425.99 234.821C1428.11 234.821 1428.11 231.648 1425.99 231.648C1424.14 231.648 1424.14 234.821 1425.99 234.821Z" fill="#475293"/>
<path d="M1429.43 322.879C1431.55 322.879 1431.55 319.706 1429.43 319.706C1427.31 319.706 1427.31 322.879 1429.43 322.879Z" fill="#475293"/>
<path d="M1253.31 716.363C1255.43 716.363 1255.43 713.19 1253.31 713.19C1251.46 713.19 1251.46 716.363 1253.31 716.363Z" fill="#475293"/>
<path d="M1195.4 815.792C1197.52 815.792 1197.52 812.619 1195.4 812.619C1193.29 812.883 1193.29 815.792 1195.4 815.792Z" fill="#475293"/>
<path d="M962.961 804.157C965.076 804.157 965.076 800.984 962.961 800.984C960.845 801.248 960.845 804.157 962.961 804.157Z" fill="#475293"/>
<path d="M846.608 759.467C848.724 759.467 848.724 756.294 846.608 756.294C844.757 756.294 844.757 759.467 846.608 759.467Z" fill="#475293"/>
<path d="M813.553 822.668C815.668 822.668 815.668 819.494 813.553 819.494C811.437 819.494 811.437 822.668 813.553 822.668Z" fill="#475293"/>
<path d="M743.741 719.537C745.857 719.537 745.857 716.363 743.741 716.363C741.89 716.363 741.89 719.537 743.741 719.537Z" fill="#475293"/>
<path d="M866.705 473.873C868.821 473.873 868.821 470.7 866.705 470.7C864.59 470.7 864.59 473.873 866.705 473.873Z" fill="#475293"/>
<path d="M747.179 386.08C749.294 386.08 749.294 382.907 747.179 382.907C745.063 382.907 745.063 386.08 747.179 386.08Z" fill="#475293"/>
<path d="M871.73 214.988C873.845 214.988 873.845 211.815 871.73 211.815C869.614 211.815 869.614 214.988 871.73 214.988Z" fill="#475293"/>
<path d="M1035.95 155.225C1038.06 155.225 1038.06 152.052 1035.95 152.052C1033.83 152.052 1033.83 155.225 1035.95 155.225Z" fill="#475293"/>
<path d="M1158.91 241.432C1161.02 241.432 1161.02 238.259 1158.91 238.259C1156.79 238.259 1156.79 241.432 1158.91 241.432Z" fill="#475293"/>
<path d="M1170.55 349.323C1172.66 349.323 1172.66 346.15 1170.55 346.15C1168.43 346.414 1168.43 349.323 1170.55 349.323Z" fill="#475293"/>
<path d="M1218.67 296.435C1220.79 296.435 1220.79 293.262 1218.67 293.262C1216.56 293.262 1216.56 296.435 1218.67 296.435Z" fill="#475293"/>
<path d="M288.908 301.195C291.023 301.195 291.023 298.022 288.908 298.022C286.792 298.022 286.792 301.195 288.908 301.195Z" fill="#475293"/>
<path d="M265.637 409.086C267.752 409.086 267.752 405.913 265.637 405.913C263.786 405.913 263.786 409.086 265.637 409.086Z" fill="#475293"/>
<path d="M340.473 508.779C342.588 508.779 342.588 505.606 340.473 505.606C338.357 505.606 338.357 508.779 340.473 508.779Z" fill="#475293"/>
<path d="M503.102 492.12C505.218 492.12 505.218 488.946 503.102 488.946C500.987 488.946 500.987 492.12 503.102 492.12Z" fill="#475293"/>
<path d="M527.96 372.594C530.075 372.594 530.075 369.42 527.96 369.42C525.844 369.42 525.844 372.594 527.96 372.594Z" fill="#475293"/>
<path d="M416.631 274.751C418.747 274.751 418.747 271.578 416.631 271.578C414.78 271.578 414.78 274.751 416.631 274.751Z" fill="#475293"/>
<path d="M380.139 196.742C382.254 196.742 382.254 193.569 380.139 193.569C378.288 193.569 378.288 196.742 380.139 196.742Z" fill="#475293"/>
<path d="M129.451 226.624C131.567 226.624 131.567 223.45 129.451 223.45C127.6 223.45 127.6 226.624 129.451 226.624Z" fill="#475293"/>
<path d="M177.579 357.785C179.694 357.785 179.694 354.612 177.579 354.612C175.728 354.612 175.728 357.785 177.579 357.785Z" fill="#475293"/>
<path d="M109.618 279.776C111.734 279.776 111.734 276.602 109.618 276.602C107.503 276.602 107.503 279.776 109.618 279.776Z" fill="#475293"/>
<path d="M39.8066 166.861C41.9221 166.861 41.9221 163.687 39.8066 163.687C37.9556 163.687 37.9556 166.861 39.8066 166.861Z" fill="#475293"/>
<path d="M13.3628 502.168C15.4783 502.168 15.4783 498.995 13.3628 498.995C11.2472 498.995 11.2472 502.168 13.3628 502.168Z" fill="#475293"/>
<path d="M147.698 731.172C149.813 731.172 149.813 727.999 147.698 727.999C145.846 727.999 145.846 731.172 147.698 731.172Z" fill="#475293"/>
<path d="M139.5 794.373C141.615 794.373 141.615 791.199 139.5 791.199C137.384 791.199 137.384 794.373 139.5 794.373Z" fill="#475293"/>
<path d="M244.217 794.373C246.333 794.373 246.333 791.199 244.217 791.199C242.102 791.199 242.102 794.373 244.217 794.373Z" fill="#475293"/>
<path d="M459.999 651.576C462.115 651.576 462.115 648.403 459.999 648.403C457.884 648.403 457.884 651.576 459.999 651.576Z" fill="#475293"/>
<path d="M605.969 563.518C608.085 563.518 608.085 560.345 605.969 560.345C603.854 560.345 603.854 563.518 605.969 563.518Z" fill="#475293"/>
<path d="M841.848 590.226C843.964 590.226 843.964 587.053 841.848 587.053C839.733 587.053 839.733 590.226 841.848 590.226Z" fill="#475293"/>
<path d="M941.277 510.366C943.392 510.366 943.392 507.193 941.277 507.193C939.426 507.193 939.426 510.366 941.277 510.366Z" fill="#475293"/>
<path d="M888.125 644.965C890.24 644.965 890.24 641.792 888.125 641.792C886.274 641.792 886.274 644.965 888.125 644.965Z" fill="#475293"/>
<path d="M881.514 571.98C883.629 571.98 883.629 568.807 881.514 568.807C879.663 568.807 879.663 571.98 881.514 571.98Z" fill="#475293"/>
<path d="M1006.06 757.88C1008.18 757.88 1008.18 754.707 1006.06 754.707C1003.95 754.707 1003.95 757.88 1006.06 757.88Z" fill="#475293"/>
<path d="M933.079 749.418C935.195 749.418 935.195 746.245 933.079 746.245C930.964 746.245 930.964 749.418 933.079 749.418Z" fill="#475293"/>
<path d="M1065.83 538.661C1067.94 538.661 1067.94 535.488 1065.83 535.488C1063.71 535.488 1063.71 538.661 1065.83 538.661Z" fill="#475293"/>
<path d="M1150.45 537.074C1152.56 537.074 1152.56 533.901 1150.45 533.901C1148.6 533.901 1148.6 537.074 1150.45 537.074Z" fill="#475293"/>
<path d="M748.766 438.968C750.881 438.968 750.881 435.794 748.766 435.794C746.65 435.794 746.65 438.968 748.766 438.968Z" fill="#475293"/>
<path d="M830.213 312.83C832.328 312.83 832.328 309.657 830.213 309.657C828.097 309.657 828.097 312.83 830.213 312.83Z" fill="#475293"/>
<path d="M647.486 165.274C649.602 165.274 649.602 162.101 647.486 162.101C645.371 162.101 645.371 165.274 647.486 165.274Z" fill="#475293"/>
<path d="M581.112 374.445C583.228 374.445 583.228 371.271 581.112 371.271C578.997 371.271 578.997 374.445 581.112 374.445Z" fill="#475293"/>
<path d="M342.06 332.928C344.175 332.928 344.175 329.755 342.06 329.755C339.944 329.755 339.944 332.928 342.06 332.928Z" fill="#475293"/>
<path d="M274.099 130.368C276.214 130.368 276.214 127.195 274.099 127.195C271.983 127.195 271.983 130.368 274.099 130.368Z" fill="#475293"/>
<path d="M68.1017 138.566C70.2172 138.566 70.2172 135.392 68.1017 135.392C66.2506 135.392 65.9862 138.566 68.1017 138.566Z" fill="#475293"/>
<path d="M104.33 197.535C106.445 197.535 106.445 194.362 104.33 194.362C102.214 194.362 102.214 197.535 104.33 197.535Z" fill="#475293"/>
<path d="M56.2019 237.466C58.3174 237.466 58.3174 234.292 56.2019 234.292C54.0864 234.292 54.0864 237.466 56.2019 237.466Z" fill="#475293"/>
<path d="M52.7643 718.743C54.8798 718.743 54.8798 715.57 52.7643 715.57C50.9132 715.57 50.9132 718.743 52.7643 718.743Z" fill="#475293"/>
<path d="M102.743 805.215C104.858 805.215 104.858 802.041 102.743 802.041C100.627 802.041 100.627 805.215 102.743 805.215Z" fill="#475293"/>
<path d="M9.66076 468.056C11.7763 468.056 11.7763 464.882 9.66076 464.882C7.80969 465.147 7.80969 468.056 9.66076 468.056Z" fill="#475293"/>
<path d="M34.5179 348.53C36.6334 348.53 36.6334 345.356 34.5179 345.356C32.6669 345.621 32.6669 348.53 34.5179 348.53Z" fill="#475293"/>
<path d="M112.527 539.454C114.643 539.454 114.643 536.281 112.527 536.281C110.676 536.281 110.676 539.454 112.527 539.454Z" fill="#475293"/>
<path d="M154.044 141.21C156.159 141.21 156.159 138.037 154.044 138.037C152.193 138.037 152.193 141.21 154.044 141.21Z" fill="#475293"/>
<path d="M87.6699 350.381C89.7854 350.381 89.7854 347.208 87.6699 347.208C85.8188 347.208 85.8188 350.381 87.6699 350.381Z" fill="#475293"/>
<path d="M55.144 368.891C57.2595 368.891 57.2595 365.718 55.144 365.718C53.293 365.718 53.293 368.891 55.144 368.891Z" fill="#475293"/>
<path d="M63.6059 234.292C65.7214 234.292 65.7214 231.119 63.6059 231.119C61.4904 231.119 61.4904 234.292 63.6059 234.292Z" fill="#475293"/>
<path d="M43.5088 287.444C45.6243 287.444 45.6243 284.271 43.5088 284.271C41.6577 284.271 41.6577 287.444 43.5088 287.444Z" fill="#475293"/>
<path d="M1.99206 146.499C4.10757 146.499 4.10757 143.326 1.99206 143.326C0.140993 143.326 0.140993 146.499 1.99206 146.499Z" fill="#475293"/>
<path d="M1288.22 769.515C1290.34 769.515 1290.34 766.342 1288.22 766.342C1286.37 766.342 1286.37 769.515 1288.22 769.515Z" fill="#475293"/>
<path d="M1431.02 779.3C1433.13 779.3 1433.13 776.126 1431.02 776.126C1428.9 776.126 1428.9 779.3 1431.02 779.3Z" fill="#475293"/>
<path d="M1329.74 867.358C1331.85 867.358 1331.85 864.184 1329.74 864.184C1327.62 864.184 1327.62 867.358 1329.74 867.358Z" fill="#475293"/>
<path d="M1381.3 953.565C1383.42 953.565 1383.42 950.391 1381.3 950.391C1379.19 950.656 1379.19 953.565 1381.3 953.565Z" fill="#475293"/>
<path d="M1291.66 998.519C1293.77 998.519 1293.77 995.346 1291.66 995.346C1289.54 995.346 1289.54 998.519 1291.66 998.519Z" fill="#475293"/>
<path d="M1221.85 943.78C1223.96 943.78 1223.96 940.607 1221.85 940.607C1219.73 940.607 1219.73 943.78 1221.85 943.78Z" fill="#475293"/>
<path d="M1313.08 889.57C1315.19 889.57 1315.19 886.397 1313.08 886.397C1311.23 886.397 1311.23 889.57 1313.08 889.57Z" fill="#475293"/>
<path d="M1089.1 685.424C1091.21 685.424 1091.21 682.251 1089.1 682.251C1086.98 682.251 1086.98 685.424 1089.1 685.424Z" fill="#475293"/>
<path d="M1321.54 754.971C1323.65 754.971 1323.65 751.798 1321.54 751.798C1319.42 752.063 1319.42 754.971 1321.54 754.971Z" fill="#475293"/>
<path d="M1301.44 808.123C1303.56 808.123 1303.56 804.95 1301.44 804.95C1299.59 804.95 1299.59 808.123 1301.44 808.123Z" fill="#475293"/>
<path d="M1231.89 695.208C1234.01 695.208 1234.01 692.035 1231.89 692.035C1229.78 692.299 1229.78 695.208 1231.89 695.208Z" fill="#475293"/>
<path d="M1130.61 783.266C1132.73 783.266 1132.73 780.093 1130.61 780.093C1128.5 780.093 1128.5 783.266 1130.61 783.266Z" fill="#475293"/>
<path d="M1181.92 869.738C1184.03 869.738 1184.03 866.564 1181.92 866.564C1180.06 866.564 1180.06 869.738 1181.92 869.738Z" fill="#475293"/>
<path d="M1092.27 914.428C1094.39 914.428 1094.39 911.254 1092.27 911.254C1090.42 911.254 1090.42 914.428 1092.27 914.428Z" fill="#475293"/>
<path d="M1022.72 859.689C1024.84 859.689 1024.84 856.516 1022.72 856.516C1020.61 856.516 1020.61 859.689 1022.72 859.689Z" fill="#475293"/>
<path d="M1260.19 667.178C1262.3 667.178 1262.3 664.005 1260.19 664.005C1258.07 664.005 1258.07 667.178 1260.19 667.178Z" fill="#475293"/>
<path d="M1411.18 681.457C1413.3 681.457 1413.3 678.284 1411.18 678.284C1409.07 678.284 1409.07 681.457 1411.18 681.457Z" fill="#475293"/>
<path d="M1186.94 477.311C1189.06 477.311 1189.06 474.138 1186.94 474.138C1185.09 474.138 1185.09 477.311 1186.94 477.311Z" fill="#475293"/>
<path d="M1419.38 547.123C1421.5 547.123 1421.5 543.95 1419.38 543.95C1417.27 543.95 1417.27 547.123 1419.38 547.123Z" fill="#475293"/>
<path d="M1399.55 600.275C1401.66 600.275 1401.66 597.102 1399.55 597.102C1397.43 597.102 1397.43 600.275 1399.55 600.275Z" fill="#475293"/>
<path d="M1329.74 487.36C1331.85 487.36 1331.85 484.187 1329.74 484.187C1327.62 484.187 1327.62 487.36 1329.74 487.36Z" fill="#475293"/>
<path d="M1228.46 575.153C1230.57 575.153 1230.57 571.98 1228.46 571.98C1226.61 571.98 1226.61 575.153 1228.46 575.153Z" fill="#475293"/>
<path d="M1280.02 661.625C1282.14 661.625 1282.14 658.451 1280.02 658.451C1277.91 658.451 1277.91 661.625 1280.02 661.625Z" fill="#475293"/>
<path d="M1190.38 706.315C1192.49 706.315 1192.49 703.141 1190.38 703.141C1188.26 703.141 1188.26 706.315 1190.38 706.315Z" fill="#475293"/>
<path d="M1120.57 651.576C1122.68 651.576 1122.68 648.403 1120.57 648.403C1118.71 648.403 1118.45 651.576 1120.57 651.576Z" fill="#475293"/>
<path d="M1358.03 459.065C1360.15 459.065 1360.15 455.892 1358.03 455.892C1355.92 455.892 1355.92 459.065 1358.03 459.065Z" fill="#475293"/>
<path d="M1414.36 482.335C1416.47 482.335 1416.47 479.162 1414.36 479.162C1412.51 479.162 1412.51 482.335 1414.36 482.335Z" fill="#475293"/>
<path d="M1190.38 278.189C1192.49 278.189 1192.49 275.016 1190.38 275.016C1188.26 275.016 1188.26 278.189 1190.38 278.189Z" fill="#475293"/>
<path d="M1422.82 348.001C1424.93 348.001 1424.93 344.828 1422.82 344.828C1420.7 344.828 1420.7 348.001 1422.82 348.001Z" fill="#475293"/>
<path d="M1402.72 400.889C1404.84 400.889 1404.84 397.715 1402.72 397.715C1400.87 397.98 1400.87 400.889 1402.72 400.889Z" fill="#475293"/>
<path d="M1333.17 288.238C1335.29 288.238 1335.29 285.064 1333.17 285.064C1331.06 285.064 1331.06 288.238 1333.17 288.238Z" fill="#475293"/>
<path d="M1231.89 376.031C1234.01 376.031 1234.01 372.858 1231.89 372.858C1229.78 372.858 1229.78 376.031 1231.89 376.031Z" fill="#475293"/>
<path d="M1283.2 462.503C1285.31 462.503 1285.31 459.329 1283.2 459.329C1281.34 459.329 1281.34 462.503 1283.2 462.503Z" fill="#475293"/>
<path d="M1193.55 507.193C1195.67 507.193 1195.67 504.019 1193.55 504.019C1191.7 504.019 1191.7 507.193 1193.55 507.193Z" fill="#475293"/>
<path d="M1124 452.454C1126.12 452.454 1126.12 449.281 1124 449.281C1121.89 449.281 1121.89 452.454 1124 452.454Z" fill="#475293"/>
<path d="M1361.2 259.943C1363.32 259.943 1363.32 256.77 1361.2 256.77C1359.35 256.77 1359.35 259.943 1361.2 259.943Z" fill="#475293"/>
<path d="M1382.89 397.715C1385 397.715 1385 394.542 1382.89 394.542C1380.77 394.542 1380.77 397.715 1382.89 397.715Z" fill="#475293"/>
<path d="M1424.41 495.557C1426.52 495.557 1426.52 492.384 1424.41 492.384C1422.29 492.384 1422.29 495.557 1424.41 495.557Z" fill="#475293"/>
<path d="M1386.33 626.719C1388.44 626.719 1388.44 623.545 1386.33 623.545C1384.21 623.545 1384.21 626.719 1386.33 626.719Z" fill="#475293"/>
<path d="M1316.51 571.98C1318.63 571.98 1318.63 568.807 1316.51 568.807C1314.4 568.807 1314.4 571.98 1316.51 571.98Z" fill="#475293"/>
<path d="M1316.51 741.22C1318.63 741.22 1318.63 738.047 1316.51 738.047C1314.4 738.047 1314.4 741.22 1316.51 741.22Z" fill="#475293"/>
<path d="M1358.03 839.063C1360.15 839.063 1360.15 835.889 1358.03 835.889C1355.92 835.889 1355.92 839.063 1358.03 839.063Z" fill="#475293"/>
<path d="M1409.33 925.534C1411.45 925.534 1411.45 922.361 1409.33 922.361C1407.48 922.361 1407.48 925.534 1409.33 925.534Z" fill="#475293"/>
<path d="M1319.69 970.224C1321.8 970.224 1321.8 967.051 1319.69 967.051C1317.84 967.051 1317.84 970.224 1319.69 970.224Z" fill="#475293"/>
<path d="M1250.14 915.485C1252.26 915.485 1252.26 912.312 1250.14 912.312C1248.03 912.312 1248.03 915.485 1250.14 915.485Z" fill="#475293"/>
<path d="M1376.28 475.196C1378.39 475.196 1378.39 472.022 1376.28 472.022C1374.16 472.022 1374.16 475.196 1376.28 475.196Z" fill="#475293"/>
<path d="M1417.79 573.038C1419.91 573.038 1419.91 569.865 1417.79 569.865C1415.68 569.865 1415.68 573.038 1417.79 573.038Z" fill="#475293"/>
<path d="M1379.45 704.199C1381.57 704.199 1381.57 701.026 1379.45 701.026C1377.6 701.026 1377.6 704.199 1379.45 704.199Z" fill="#475293"/>
<path d="M1309.9 649.46C1312.02 649.46 1312.02 646.287 1309.9 646.287C1307.79 646.287 1307.79 649.46 1309.9 649.46Z" fill="#475293"/>
<path d="M1376.28 559.287C1378.39 559.287 1378.39 556.114 1376.28 556.114C1374.16 556.114 1374.16 559.287 1376.28 559.287Z" fill="#475293"/>
<path d="M1164.99 355.405C1167.11 355.405 1167.11 352.232 1164.99 352.232C1162.88 352.232 1162.88 355.405 1164.99 355.405Z" fill="#475293"/>
<path d="M940.748 150.994C942.864 150.994 942.864 147.821 940.748 147.821C938.633 147.821 938.633 150.994 940.748 150.994Z" fill="#475293"/>
<path d="M1173.19 220.806C1175.3 220.806 1175.3 217.633 1173.19 217.633C1171.07 217.633 1171.07 220.806 1173.19 220.806Z" fill="#475293"/>
<path d="M1153.36 273.958C1155.47 273.958 1155.47 270.785 1153.36 270.785C1151.24 270.785 1151.24 273.958 1153.36 273.958Z" fill="#475293"/>
<path d="M1083.54 161.043C1085.66 161.043 1085.66 157.87 1083.54 157.87C1081.43 157.87 1081.43 161.043 1083.54 161.043Z" fill="#475293"/>
<path d="M982.265 249.101C984.38 249.101 984.38 245.928 982.265 245.928C980.149 245.928 980.149 249.101 982.265 249.101Z" fill="#475293"/>
<path d="M1033.83 335.308C1035.95 335.308 1035.95 332.135 1033.83 332.135C1031.71 332.135 1031.71 335.308 1033.83 335.308Z" fill="#475293"/>
<path d="M944.186 380.262C946.301 380.262 946.301 377.089 944.186 377.089C942.07 377.089 942.07 380.262 944.186 380.262Z" fill="#475293"/>
<path d="M874.374 325.524C876.489 325.524 876.489 322.35 874.374 322.35C872.258 322.35 872.258 325.524 874.374 325.524Z" fill="#475293"/>
<path d="M1111.84 132.748C1113.96 132.748 1113.96 129.575 1111.84 129.575C1109.72 129.575 1109.72 132.748 1111.84 132.748Z" fill="#475293"/>
<path d="M81.5879 722.71C83.7034 722.71 83.7034 719.537 81.5879 719.537C79.4723 719.537 79.4723 722.71 81.5879 722.71Z" fill="#475293"/>
<path d="M251.886 499.788C254.002 499.788 254.002 496.615 251.886 496.615C250.035 496.615 250.035 499.788 251.886 499.788Z" fill="#475293"/>
<path d="M203.758 539.454C205.874 539.454 205.874 536.281 203.758 536.281C201.907 536.281 201.907 539.454 203.758 539.454Z" fill="#475293"/>
<path d="M200.585 1021C202.701 1021 202.701 1017.82 200.585 1017.82C198.47 1017.82 198.47 1021 200.585 1021Z" fill="#475293"/>
<path d="M157.217 770.308C159.333 770.308 159.333 767.135 157.217 767.135C155.366 767.135 155.366 770.308 157.217 770.308Z" fill="#475293"/>
<path d="M182.339 650.783C184.454 650.783 184.454 647.609 182.339 647.609C180.223 647.609 180.223 650.783 182.339 650.783Z" fill="#475293"/>
<path d="M71.0103 552.676C73.1258 552.676 73.1258 549.503 71.0103 549.503C68.8948 549.767 68.8948 552.676 71.0103 552.676Z" fill="#475293"/>
<path d="M34.5178 474.667C36.6333 474.667 36.6333 471.493 34.5178 471.493C32.4023 471.493 32.4023 474.667 34.5178 474.667Z" fill="#475293"/>
<path d="M114.114 929.5C116.229 929.5 116.229 926.327 114.114 926.327C112.263 926.592 112.263 929.5 114.114 929.5Z" fill="#475293"/>
<path d="M260.348 841.707C262.464 841.707 262.464 838.534 260.348 838.534C258.233 838.534 258.233 841.707 260.348 841.707Z" fill="#475293"/>
<path d="M301.865 443.199C303.98 443.199 303.98 440.025 301.865 440.025C299.749 440.025 299.749 443.199 301.865 443.199Z" fill="#475293"/>
<path d="M235.491 652.369C237.606 652.369 237.606 649.196 235.491 649.196C233.375 649.196 233.375 652.369 235.491 652.369Z" fill="#475293"/>
<path d="M1126.91 733.287C1129.03 733.287 1129.03 730.114 1126.91 730.114C1125.06 730.114 1125.06 733.287 1126.91 733.287Z" fill="#475293"/>
<path d="M820.958 649.725C823.073 649.725 823.073 646.552 820.958 646.552C818.842 646.552 818.842 649.725 820.958 649.725Z" fill="#475293"/>
<path d="M857.45 835.625C859.565 835.625 859.565 832.452 857.45 832.452C855.599 832.452 855.599 835.625 857.45 835.625Z" fill="#475293"/>
<path d="M1297.48 510.101C1299.59 510.101 1299.59 506.928 1297.48 506.928C1295.36 507.193 1295.36 510.101 1297.48 510.101Z" fill="#475293"/>
<path d="M1249.35 550.032C1251.46 550.032 1251.46 546.858 1249.35 546.858C1247.23 546.858 1247.23 550.032 1249.35 550.032Z" fill="#475293"/>
<path d="M940.484 457.214C942.599 457.214 942.599 454.041 940.484 454.041C938.368 454.041 938.368 457.214 940.484 457.214Z" fill="#475293"/>
<path d="M596.978 445.578C599.094 445.578 599.094 442.405 596.978 442.405C594.863 442.405 594.863 445.578 596.978 445.578Z" fill="#475293"/>
<path d="M583.492 822.403C585.607 822.403 585.607 819.23 583.492 819.23C581.641 819.23 581.641 822.403 583.492 822.403Z" fill="#475293"/>
<path d="M967.192 910.197C969.307 910.197 969.307 907.023 967.192 907.023C965.076 907.288 965.076 910.197 967.192 910.197Z" fill="#475293"/>
<path d="M988.611 589.962C990.727 589.962 990.727 586.789 988.611 586.789C986.496 586.789 986.496 589.962 988.611 589.962Z" fill="#475293"/>
<path d="M965.34 697.853C967.456 697.853 967.456 694.679 965.34 694.679C963.489 694.679 963.489 697.853 965.34 697.853Z" fill="#475293"/>
<path d="M1040.18 797.546C1042.29 797.546 1042.29 794.373 1040.18 794.373C1038.06 794.373 1038.06 797.546 1040.18 797.546Z" fill="#475293"/>
<path d="M1202.81 780.886C1204.92 780.886 1204.92 777.713 1202.81 777.713C1200.69 777.713 1200.69 780.886 1202.81 780.886Z" fill="#475293"/>
<path d="M1227.66 661.36C1229.78 661.36 1229.78 658.187 1227.66 658.187C1225.55 658.187 1225.55 661.36 1227.66 661.36Z" fill="#475293"/>
<path d="M1116.6 563.253C1118.71 563.253 1118.71 560.08 1116.6 560.08C1114.48 560.08 1114.48 563.253 1116.6 563.253Z" fill="#475293"/>
<path d="M1079.84 485.244C1081.96 485.244 1081.96 482.071 1079.84 482.071C1077.99 482.071 1077.99 485.244 1079.84 485.244Z" fill="#475293"/>
<path d="M829.155 515.126C831.27 515.126 831.27 511.953 829.155 511.953C827.304 511.953 827.304 515.126 829.155 515.126Z" fill="#475293"/>
<path d="M877.547 646.287C879.663 646.287 879.663 643.114 877.547 643.114C875.432 643.114 875.432 646.287 877.547 646.287Z" fill="#475293"/>
<path d="M809.322 568.278C811.437 568.278 811.437 565.105 809.322 565.105C807.206 565.105 807.206 568.278 809.322 568.278Z" fill="#475293"/>
<path d="M739.51 455.363C741.626 455.363 741.626 452.189 739.51 452.189C737.659 452.189 737.659 455.363 739.51 455.363Z" fill="#475293"/>
<path d="M638.495 543.421C640.611 543.421 640.611 540.247 638.495 540.247C636.38 540.247 636.38 543.421 638.495 543.421Z" fill="#475293"/>
<path d="M689.796 629.628C691.912 629.628 691.912 626.454 689.796 626.454C687.681 626.719 687.681 629.628 689.796 629.628Z" fill="#475293"/>
<path d="M713.067 790.67C715.182 790.67 715.182 787.497 713.067 787.497C710.951 787.762 710.951 790.67 713.067 790.67Z" fill="#475293"/>
<path d="M595.127 891.95C597.243 891.95 597.243 888.777 595.127 888.777C593.276 888.777 593.276 891.95 595.127 891.95Z" fill="#475293"/>
<path d="M489.087 853.871C491.203 853.871 491.203 850.698 489.087 850.698C486.972 850.698 486.972 853.871 489.087 853.871Z" fill="#475293"/>
<path d="M465.817 664.533C467.932 664.533 467.932 661.36 465.817 661.36C463.701 661.36 463.701 664.533 465.817 664.533Z" fill="#475293"/>
<path d="M558.634 734.345C560.75 734.345 560.75 731.172 558.634 731.172C556.783 731.172 556.783 734.345 558.634 734.345Z" fill="#475293"/>
<path d="M600.151 674.582C602.267 674.582 602.267 671.409 600.151 671.409C598.3 671.409 598.036 674.582 600.151 674.582Z" fill="#475293"/>
<path d="M530.604 619.843C532.72 619.843 532.72 616.67 530.604 616.67C528.489 616.67 528.489 619.843 530.604 619.843Z" fill="#475293"/>
<path d="M449.157 430.505C451.273 430.505 451.273 427.332 449.157 427.332C447.042 427.332 447.042 430.505 449.157 430.505Z" fill="#475293"/>
<path d="M696.407 912.048C698.522 912.048 698.522 908.875 696.407 908.875C694.556 908.875 694.556 912.048 696.407 912.048Z" fill="#475293"/>
<path d="M847.666 1019.94C849.781 1019.94 849.781 1016.77 847.666 1016.77C845.55 1016.77 845.55 1019.94 847.666 1019.94Z" fill="#475293"/>
<path d="M1159.7 940.078C1161.82 940.078 1161.82 936.905 1159.7 936.905C1157.59 937.169 1157.59 940.078 1159.7 940.078Z" fill="#475293"/>
<path d="M1305.67 852.285C1307.79 852.285 1307.79 849.111 1305.67 849.111C1303.82 849.111 1303.82 852.285 1305.67 852.285Z" fill="#475293"/>
<path d="M1347.19 453.776C1349.31 453.776 1349.31 450.603 1347.19 450.603C1345.07 450.603 1345.07 453.776 1347.19 453.776Z" fill="#475293"/>
<path d="M1280.82 662.947C1282.93 662.947 1282.93 659.773 1280.82 659.773C1278.7 659.773 1278.7 662.947 1280.82 662.947Z" fill="#475293"/>
<path d="M1041.76 621.43C1043.88 621.43 1043.88 618.257 1041.76 618.257C1039.65 618.257 1039.65 621.43 1041.76 621.43Z" fill="#475293"/>
<path d="M973.803 418.87C975.918 418.87 975.918 415.697 973.803 415.697C971.687 415.697 971.687 418.87 973.803 418.87Z" fill="#475293"/>
<path d="M767.805 427.332C769.921 427.332 769.921 424.159 767.805 424.159C765.954 424.159 765.954 427.332 767.805 427.332Z" fill="#475293"/>
<path d="M598.565 544.214C600.68 544.214 600.68 541.041 598.565 541.041C596.449 541.041 596.449 544.214 598.565 544.214Z" fill="#475293"/>
<path d="M292.61 460.652C294.725 460.652 294.725 457.478 292.61 457.478C290.494 457.478 290.494 460.652 292.61 460.652Z" fill="#475293"/>
<path d="M329.102 646.552C331.218 646.552 331.218 643.378 329.102 643.378C326.987 643.378 326.987 646.552 329.102 646.552Z" fill="#475293"/>
<path d="M768.863 321.293C770.978 321.293 770.978 318.119 768.863 318.119C767.012 318.119 767.012 321.293 768.863 321.293Z" fill="#475293"/>
<path d="M720.735 361.223C722.851 361.223 722.851 358.049 720.735 358.049C718.884 358.049 718.884 361.223 720.735 361.223Z" fill="#475293"/>
<path d="M412.136 268.141C414.251 268.141 414.251 264.967 412.136 264.967C410.02 264.967 410.02 268.141 412.136 268.141Z" fill="#475293"/>
<path d="M68.3661 256.505C70.4816 256.505 70.4816 253.332 68.3661 253.332C66.515 253.332 66.515 256.505 68.3661 256.505Z" fill="#475293"/>
<path d="M55.144 633.33C57.2595 633.33 57.2595 630.156 55.144 630.156C53.0285 630.156 53.0285 633.33 55.144 633.33Z" fill="#475293"/>
<path d="M438.58 721.388C440.695 721.388 440.695 718.214 438.58 718.214C436.464 718.214 436.464 721.388 438.58 721.388Z" fill="#475293"/>
<path d="M717.562 842.5C719.677 842.5 719.677 839.327 717.562 839.327C715.446 839.327 715.446 842.5 717.562 842.5Z" fill="#475293"/>
<path d="M767.277 928.972C769.392 928.972 769.392 925.798 767.277 925.798C765.161 925.798 765.161 928.972 767.277 928.972Z" fill="#475293"/>
<path d="M460.263 400.889C462.379 400.889 462.379 397.715 460.263 397.715C458.148 397.715 458.148 400.889 460.263 400.889Z" fill="#475293"/>
<path d="M436.993 508.779C439.108 508.779 439.108 505.606 436.993 505.606C434.877 505.606 434.877 508.779 436.993 508.779Z" fill="#475293"/>
<path d="M511.565 608.473C513.68 608.473 513.68 605.299 511.565 605.299C509.714 605.299 509.714 608.473 511.565 608.473Z" fill="#475293"/>
<path d="M674.459 591.813C676.574 591.813 676.574 588.64 674.459 588.64C672.343 588.64 672.343 591.813 674.459 591.813Z" fill="#475293"/>
<path d="M699.316 472.287C701.431 472.287 701.431 469.114 699.316 469.114C697.2 469.114 697.2 472.287 699.316 472.287Z" fill="#475293"/>
<path d="M587.988 374.445C590.103 374.445 590.103 371.271 587.988 371.271C585.872 371.271 585.872 374.445 587.988 374.445Z" fill="#475293"/>
<path d="M551.495 296.435C553.61 296.435 553.61 293.262 551.495 293.262C549.379 293.262 549.379 296.435 551.495 296.435Z" fill="#475293"/>
<path d="M300.807 326.317C302.923 326.317 302.923 323.144 300.807 323.144C298.692 323.144 298.692 326.317 300.807 326.317Z" fill="#475293"/>
<path d="M348.935 457.478C351.051 457.478 351.051 454.305 348.935 454.305C346.82 454.305 346.82 457.478 348.935 457.478Z" fill="#475293"/>
<path d="M280.974 379.469C283.09 379.469 283.09 376.296 280.974 376.296C278.859 376.296 278.859 379.469 280.974 379.469Z" fill="#475293"/>
<path d="M211.163 266.554C213.278 266.554 213.278 263.38 211.163 263.38C209.047 263.38 209.047 266.554 211.163 266.554Z" fill="#475293"/>
<path d="M109.883 354.347C111.998 354.347 111.998 351.174 109.883 351.174C107.767 351.438 107.767 354.347 109.883 354.347Z" fill="#475293"/>
<path d="M161.448 440.819C163.564 440.819 163.564 437.645 161.448 437.645C159.333 437.645 159.333 440.819 161.448 440.819Z" fill="#475293"/>
<path d="M184.719 601.862C186.834 601.862 186.834 598.688 184.719 598.688C182.603 598.688 182.603 601.862 184.719 601.862Z" fill="#475293"/>
<path d="M66.7795 703.141C68.895 703.141 68.895 699.968 66.7795 699.968C64.664 699.968 64.664 703.141 66.7795 703.141Z" fill="#475293"/>
<path d="M30.2869 545.272C32.4025 545.272 32.4025 542.099 30.2869 542.099C28.1714 542.099 28.1714 545.272 30.2869 545.272Z" fill="#475293"/>
<path d="M71.8037 485.509C73.9192 485.509 73.9192 482.335 71.8037 482.335C69.6882 482.335 69.6882 485.509 71.8037 485.509Z" fill="#475293"/>
<path d="M1.9919 430.77C4.10741 430.77 4.10741 427.597 1.9919 427.597C-0.123603 427.597 -0.123603 430.77 1.9919 430.77Z" fill="#475293"/>
<path d="M168.059 722.974C170.175 722.974 170.175 719.801 168.059 719.801C165.944 719.801 165.944 722.974 168.059 722.974Z" fill="#475293"/>
<path d="M319.053 830.865C321.169 830.865 321.169 827.692 319.053 827.692C316.938 827.692 316.938 830.865 319.053 830.865Z" fill="#475293"/>
<path d="M310.856 894.066C312.971 894.066 312.971 890.893 310.856 890.893C308.74 890.893 308.74 894.066 310.856 894.066Z" fill="#475293"/>
<path d="M415.309 894.066C417.425 894.066 417.425 890.893 415.309 890.893C413.458 890.893 413.458 894.066 415.309 894.066Z" fill="#475293"/>
<path d="M631.09 751.269C633.206 751.269 633.206 748.096 631.09 748.096C629.239 748.096 629.239 751.269 631.09 751.269Z" fill="#475293"/>
<path d="M777.325 663.211C779.441 663.211 779.441 660.038 777.325 660.038C775.21 660.038 775.21 663.211 777.325 663.211Z" fill="#475293"/>
<path d="M818.842 264.703C820.958 264.703 820.958 261.53 818.842 261.53C816.726 261.794 816.726 264.703 818.842 264.703Z" fill="#475293"/>
<path d="M752.468 473.873C754.583 473.873 754.583 470.7 752.468 470.7C750.352 470.965 750.352 473.873 752.468 473.873Z" fill="#475293"/>
<path d="M513.416 432.357C515.531 432.357 515.531 429.183 513.416 429.183C511.3 429.448 511.3 432.357 513.416 432.357Z" fill="#475293"/>
<path d="M1051.28 296.964C1051.28 296.964 1051.28 296.699 1051.28 296.964C1051.02 296.699 1051.02 296.964 1051.28 296.964Z" fill="#475293"/>
<path d="M1383.15 452.189C1385.27 452.189 1385.27 449.016 1383.15 449.016C1381.04 449.016 1381.04 452.189 1383.15 452.189Z" fill="#475293"/>
<path d="M1102.06 355.934C1104.17 355.934 1104.17 352.761 1102.06 352.761C1099.94 352.761 1099.94 355.934 1102.06 355.934Z" fill="#475293"/>
<path d="M1360.41 204.411C1362.53 204.411 1362.53 201.237 1360.41 201.237C1358.56 201.237 1358.56 204.411 1360.41 204.411Z" fill="#475293"/>
<path d="M942.07 533.108C944.186 533.108 944.186 529.934 942.07 529.934C940.219 529.934 940.219 533.108 942.07 533.108Z" fill="#475293"/>
<path d="M1221.05 654.22C1223.17 654.22 1223.17 651.047 1221.05 651.047C1218.94 651.047 1218.94 654.22 1221.05 654.22Z" fill="#475293"/>
<path d="M1270.77 740.427C1272.88 740.427 1272.88 737.254 1270.77 737.254C1268.92 737.518 1268.92 740.427 1270.77 740.427Z" fill="#475293"/>
<path d="M1418.59 630.95C1420.7 630.95 1420.7 627.777 1418.59 627.777C1416.47 627.777 1416.47 630.95 1418.59 630.95Z" fill="#475293"/>
<path d="M1422.03 297.229C1424.14 297.229 1424.14 294.055 1422.03 294.055C1419.91 294.055 1419.91 297.229 1422.03 297.229Z" fill="#475293"/>
<path d="M963.754 212.608C965.87 212.608 965.87 209.435 963.754 209.435C961.639 209.435 961.639 212.608 963.754 212.608Z" fill="#475293"/>
<path d="M940.484 320.499C942.599 320.499 942.599 317.326 940.484 317.326C938.368 317.326 938.368 320.499 940.484 320.499Z" fill="#475293"/>
<path d="M1015.32 420.193C1017.44 420.193 1017.44 417.019 1015.32 417.019C1013.2 417.019 1013.2 420.193 1015.32 420.193Z" fill="#475293"/>
<path d="M1177.95 403.533C1180.06 403.533 1180.06 400.36 1177.95 400.36C1175.83 400.36 1175.83 403.533 1177.95 403.533Z" fill="#475293"/>
<path d="M1202.81 284.007C1204.92 284.007 1204.92 280.833 1202.81 280.833C1200.69 280.833 1200.69 284.007 1202.81 284.007Z" fill="#475293"/>
<path d="M1134.85 562.989C1136.96 562.989 1136.96 559.816 1134.85 559.816C1132.73 559.816 1132.73 562.989 1134.85 562.989Z" fill="#475293"/>
<path d="M1280.82 474.931C1282.93 474.931 1282.93 471.758 1280.82 471.758C1278.7 471.758 1278.7 474.931 1280.82 474.931Z" fill="#475293"/>
<path d="M1423.61 350.381C1425.73 350.381 1425.73 347.208 1423.61 347.208C1421.5 347.208 1421.5 350.381 1423.61 350.381Z" fill="#475293"/>
<path d="M1255.96 285.593C1258.07 285.593 1258.07 282.42 1255.96 282.42C1253.84 282.42 1253.84 285.593 1255.96 285.593Z" fill="#475293"/>
<path d="M1016.91 244.076C1019.02 244.076 1019.02 240.903 1016.91 240.903C1014.79 240.903 1014.79 244.076 1016.91 244.076Z" fill="#475293"/>
<path d="M935.195 753.12C937.311 753.12 937.311 749.947 935.195 749.947C933.08 749.947 933.08 753.12 935.195 753.12Z" fill="#475293"/>
<path d="M976.447 354.612C978.562 354.612 978.562 351.439 976.447 351.439C974.596 351.439 974.596 354.612 976.447 354.612Z" fill="#475293"/>
<path d="M1271.56 356.727C1273.68 356.727 1273.68 353.554 1271.56 353.554C1269.71 353.818 1269.71 356.727 1271.56 356.727Z" fill="#475293"/>
<path d="M1258.34 733.552C1260.45 733.552 1260.45 730.379 1258.34 730.379C1256.49 730.643 1256.49 733.552 1258.34 733.552Z" fill="#475293"/>
<path d="M1414.36 366.776C1416.47 366.776 1416.47 363.603 1414.36 363.603C1412.51 363.603 1412.51 366.776 1414.36 366.776Z" fill="#475293"/>
<path d="M1313.08 454.834C1315.19 454.834 1315.19 451.661 1313.08 451.661C1311.23 451.661 1311.23 454.834 1313.08 454.834Z" fill="#475293"/>
<path d="M1364.64 541.041C1366.76 541.041 1366.76 537.868 1364.64 537.868C1362.53 537.868 1362.53 541.041 1364.64 541.041Z" fill="#475293"/>
<path d="M1387.91 702.084C1390.03 702.084 1390.03 698.91 1387.91 698.91C1385.8 698.91 1385.8 702.084 1387.91 702.084Z" fill="#475293"/>
<path d="M1269.97 803.363C1272.09 803.363 1272.09 800.19 1269.97 800.19C1267.86 800.19 1267.86 803.363 1269.97 803.363Z" fill="#475293"/>
<path d="M1163.67 765.284C1165.78 765.284 1165.78 762.111 1163.67 762.111C1161.82 762.111 1161.82 765.284 1163.67 765.284Z" fill="#475293"/>
<path d="M1140.4 575.947C1142.51 575.947 1142.51 572.773 1140.4 572.773C1138.55 572.773 1138.55 575.947 1140.4 575.947Z" fill="#475293"/>
<path d="M1233.48 645.758C1235.6 645.758 1235.6 642.585 1233.48 642.585C1231.37 642.585 1231.37 645.758 1233.48 645.758Z" fill="#475293"/>
<path d="M1275 585.995C1277.11 585.995 1277.11 582.822 1275 582.822C1272.88 582.822 1272.88 585.995 1275 585.995Z" fill="#475293"/>
<path d="M1205.19 531.257C1207.3 531.257 1207.3 528.083 1205.19 528.083C1203.34 528.083 1203.34 531.257 1205.19 531.257Z" fill="#475293"/>
<path d="M1124 341.919C1126.12 341.919 1126.12 338.745 1124 338.745C1121.89 338.745 1121.89 341.919 1124 341.919Z" fill="#475293"/>
<path d="M1371.25 823.196C1373.37 823.196 1373.37 820.023 1371.25 820.023C1369.14 820.288 1369.14 823.196 1371.25 823.196Z" fill="#475293"/>
<path d="M1273.41 455.627C1275.53 455.627 1275.53 452.454 1273.41 452.454C1271.3 452.454 1271.3 455.627 1273.41 455.627Z" fill="#475293"/>
<path d="M967.456 372.065C969.572 372.065 969.572 368.891 967.456 368.891C965.341 368.891 965.341 372.065 967.456 372.065Z" fill="#475293"/>
<path d="M1003.95 557.965C1006.06 557.965 1006.06 554.792 1003.95 554.792C1001.83 554.792 1001.83 557.965 1003.95 557.965Z" fill="#475293"/>
<path d="M1395.58 272.371C1397.7 272.371 1397.7 269.198 1395.58 269.198C1393.73 269.198 1393.47 272.371 1395.58 272.371Z" fill="#475293"/>
<path d="M1113.43 632.801C1115.54 632.801 1115.54 629.628 1113.43 629.628C1111.31 629.628 1111.31 632.801 1113.43 632.801Z" fill="#475293"/>
<path d="M1392.41 753.914C1394.52 753.914 1394.52 750.74 1392.41 750.74C1390.29 750.74 1390.29 753.914 1392.41 753.914Z" fill="#475293"/>
<path d="M1135.11 312.302C1137.23 312.302 1137.23 309.128 1135.11 309.128C1133 309.128 1133 312.302 1135.11 312.302Z" fill="#475293"/>
<path d="M1111.84 420.193C1113.96 420.193 1113.96 417.019 1111.84 417.019C1109.72 417.019 1109.72 420.193 1111.84 420.193Z" fill="#475293"/>
<path d="M1186.41 519.886C1188.53 519.886 1188.53 516.713 1186.41 516.713C1184.56 516.713 1184.56 519.886 1186.41 519.886Z" fill="#475293"/>
<path d="M1349.04 503.226C1351.16 503.226 1351.16 500.053 1349.04 500.053C1347.19 500.053 1347.19 503.226 1349.04 503.226Z" fill="#475293"/>
<path d="M1374.16 383.7C1376.28 383.7 1376.28 380.527 1374.16 380.527C1372.05 380.527 1372.05 383.7 1374.16 383.7Z" fill="#475293"/>
<path d="M1262.83 285.858C1264.95 285.858 1264.95 282.685 1262.83 282.685C1260.72 282.685 1260.72 285.858 1262.83 285.858Z" fill="#475293"/>
<path d="M1226.34 207.584C1228.46 207.584 1228.46 204.411 1226.34 204.411C1224.23 204.675 1224.23 207.584 1226.34 207.584Z" fill="#475293"/>
<path d="M975.654 237.466C977.77 237.466 977.77 234.292 975.654 234.292C973.539 234.557 973.539 237.466 975.654 237.466Z" fill="#475293"/>
<path d="M1023.78 368.627C1025.9 368.627 1025.9 365.454 1023.78 365.454C1021.67 365.454 1021.67 368.627 1023.78 368.627Z" fill="#475293"/>
<path d="M955.821 290.618C957.937 290.618 957.937 287.444 955.821 287.444C953.705 287.444 953.705 290.618 955.821 290.618Z" fill="#475293"/>
<path d="M993.9 742.278C996.016 742.278 996.016 739.105 993.9 739.105C991.785 739.105 991.785 742.278 993.9 742.278Z" fill="#475293"/>
<path d="M985.702 805.215C987.818 805.215 987.818 802.041 985.702 802.041C983.587 802.306 983.587 805.215 985.702 805.215Z" fill="#475293"/>
<path d="M1090.16 805.215C1092.27 805.215 1092.27 802.041 1090.16 802.041C1088.04 802.306 1088.04 805.215 1090.16 805.215Z" fill="#475293"/>
<path d="M1305.94 662.682C1308.05 662.682 1308.05 659.509 1305.94 659.509C1304.09 659.509 1304.09 662.682 1305.94 662.682Z" fill="#475293"/>
<path d="M1427.05 385.287C1429.17 385.287 1429.17 382.113 1427.05 382.113C1425.2 382.113 1425.2 385.287 1427.05 385.287Z" fill="#475293"/>
<path d="M1188 343.77C1190.11 343.77 1190.11 340.597 1188 340.597C1186.15 340.597 1186.15 343.77 1188 343.77Z" fill="#475293"/>
<path d="M655.419 634.652C657.535 634.652 657.535 631.479 655.419 631.479C653.304 631.479 653.304 634.652 655.419 634.652Z" fill="#475293"/>
<path d="M374.321 538.396C376.437 538.396 376.437 535.223 374.321 535.223C372.206 535.223 372.206 538.396 374.321 538.396Z" fill="#475293"/>
<path d="M632.677 386.873C634.793 386.873 634.793 383.7 632.677 383.7C630.562 383.7 630.562 386.873 632.677 386.873Z" fill="#475293"/>
<path d="M214.336 715.57C216.451 715.57 216.451 712.397 214.336 712.397C212.22 712.397 212.22 715.57 214.336 715.57Z" fill="#475293"/>
<path d="M493.318 836.682C495.434 836.682 495.434 833.509 493.318 833.509C491.203 833.509 491.203 836.682 493.318 836.682Z" fill="#475293"/>
<path d="M543.032 923.154C545.148 923.154 545.148 919.981 543.032 919.981C540.917 919.981 540.917 923.154 543.032 923.154Z" fill="#475293"/>
<path d="M690.854 813.412C692.969 813.412 692.969 810.239 690.854 810.239C688.738 810.239 688.738 813.412 690.854 813.412Z" fill="#475293"/>
<path d="M694.027 479.691C696.142 479.691 696.142 476.518 694.027 476.518C692.176 476.518 691.911 479.691 694.027 479.691Z" fill="#475293"/>
<path d="M236.02 395.071C238.135 395.071 238.135 391.898 236.02 391.898C233.904 391.898 233.904 395.071 236.02 395.071Z" fill="#475293"/>
<path d="M212.749 502.962C214.865 502.962 214.865 499.788 212.749 499.788C210.634 499.788 210.634 502.962 212.749 502.962Z" fill="#475293"/>
<path d="M287.321 602.655C289.436 602.655 289.436 599.482 287.321 599.482C285.205 599.482 285.205 602.655 287.321 602.655Z" fill="#475293"/>
<path d="M449.95 585.995C452.066 585.995 452.066 582.822 449.95 582.822C448.099 582.822 448.099 585.995 449.95 585.995Z" fill="#475293"/>
<path d="M475.072 466.469C477.187 466.469 477.187 463.296 475.072 463.296C472.956 463.296 472.956 466.469 475.072 466.469Z" fill="#475293"/>
<path d="M406.847 745.452C408.963 745.452 408.963 742.278 406.847 742.278C404.731 742.278 404.731 745.452 406.847 745.452Z" fill="#475293"/>
<path d="M553.081 657.394C555.197 657.394 555.197 654.22 553.081 654.22C550.966 654.22 550.966 657.394 553.081 657.394Z" fill="#475293"/>
<path d="M695.614 532.843C697.729 532.843 697.729 529.67 695.614 529.67C693.763 529.67 693.763 532.843 695.614 532.843Z" fill="#475293"/>
<path d="M527.96 468.056C530.075 468.056 530.075 464.882 527.96 464.882C526.109 465.147 526.109 468.056 527.96 468.056Z" fill="#475293"/>
<path d="M288.907 426.804C291.023 426.804 291.023 423.63 288.907 423.63C287.056 423.63 287.056 426.804 288.907 426.804Z" fill="#475293"/>
<path d="M207.196 935.583C209.312 935.583 209.312 932.409 207.196 932.409C205.081 932.409 205.081 935.583 207.196 935.583Z" fill="#475293"/>
<path d="M248.713 537.074C250.828 537.074 250.828 533.901 248.713 533.901C246.597 533.901 246.597 537.074 248.713 537.074Z" fill="#475293"/>
<path d="M543.826 539.454C545.942 539.454 545.942 536.281 543.826 536.281C541.711 536.281 541.711 539.454 543.826 539.454Z" fill="#475293"/>
<path d="M530.604 916.279C532.72 916.279 532.72 913.105 530.604 913.105C528.489 913.105 528.489 916.279 530.604 916.279Z" fill="#475293"/>
<path d="M686.623 549.238C688.738 549.238 688.738 546.065 686.623 546.065C684.507 546.065 684.507 549.238 686.623 549.238Z" fill="#475293"/>
<path d="M585.343 637.296C587.458 637.296 587.458 634.123 585.343 634.123C583.227 634.123 583.227 637.296 585.343 637.296Z" fill="#475293"/>
<path d="M636.908 723.503C639.024 723.503 639.024 720.33 636.908 720.33C634.793 720.33 634.793 723.503 636.908 723.503Z" fill="#475293"/>
<path d="M659.914 884.546C662.03 884.546 662.03 881.373 659.914 881.373C658.063 881.373 658.063 884.546 659.914 884.546Z" fill="#475293"/>
<path d="M542.239 985.826C544.355 985.826 544.355 982.653 542.239 982.653C540.124 982.653 540.124 985.826 542.239 985.826Z" fill="#475293"/>
<path d="M435.935 947.747C438.051 947.747 438.051 944.574 435.935 944.574C433.82 944.574 433.82 947.747 435.935 947.747Z" fill="#475293"/>
<path d="M412.665 758.409C414.78 758.409 414.78 755.236 412.665 755.236C410.549 755.236 410.549 758.409 412.665 758.409Z" fill="#475293"/>
<path d="M505.747 828.221C507.862 828.221 507.862 825.047 505.747 825.047C503.631 825.047 503.631 828.221 505.747 828.221Z" fill="#475293"/>
<path d="M547.264 768.458C549.379 768.458 549.379 765.284 547.264 765.284C545.148 765.284 545.148 768.458 547.264 768.458Z" fill="#475293"/>
<path d="M477.452 713.719C479.567 713.719 479.567 710.546 477.452 710.546C475.336 710.546 475.336 713.719 477.452 713.719Z" fill="#475293"/>
<path d="M396.005 524.381C398.121 524.381 398.121 521.208 396.005 521.208C394.154 521.208 394.154 524.381 396.005 524.381Z" fill="#475293"/>
<path d="M643.519 1005.92C645.635 1005.92 645.635 1002.75 643.519 1002.75C641.404 1002.75 641.404 1005.92 643.519 1005.92Z" fill="#475293"/>
<path d="M714.918 520.943C717.033 520.943 717.033 517.77 714.918 517.77C712.802 518.035 712.802 520.943 714.918 520.943Z" fill="#475293"/>
<path d="M545.412 638.09C547.528 638.09 547.528 634.916 545.412 634.916C543.561 634.916 543.561 638.09 545.412 638.09Z" fill="#475293"/>
<path d="M239.457 554.527C241.573 554.527 241.573 551.354 239.457 551.354C237.342 551.354 237.342 554.527 239.457 554.527Z" fill="#475293"/>
<path d="M275.95 740.427C278.066 740.427 278.066 737.254 275.95 737.254C274.099 737.254 274.099 740.427 275.95 740.427Z" fill="#475293"/>
<path d="M715.975 415.168C718.091 415.168 718.091 411.995 715.975 411.995C713.86 411.995 713.86 415.168 715.975 415.168Z" fill="#475293"/>
<path d="M667.848 454.834C669.963 454.834 669.963 451.661 667.848 451.661C665.732 451.925 665.732 454.834 667.848 454.834Z" fill="#475293"/>
<path d="M385.692 815.263C387.807 815.263 387.807 812.09 385.692 812.09C383.576 812.09 383.576 815.263 385.692 815.263Z" fill="#475293"/>
<path d="M664.41 936.376C666.525 936.376 666.525 933.203 664.41 933.203C662.559 933.203 662.559 936.376 664.41 936.376Z" fill="#475293"/>
<path d="M714.389 1022.58C716.504 1022.58 716.504 1019.41 714.389 1019.41C712.273 1019.41 712.273 1022.58 714.389 1022.58Z" fill="#475293"/>
<path d="M407.111 494.764C409.227 494.764 409.227 491.591 407.111 491.591C405.26 491.591 405.26 494.764 407.111 494.764Z" fill="#475293"/>
<path d="M383.841 602.655C385.956 602.655 385.956 599.482 383.841 599.482C381.99 599.482 381.99 602.655 383.841 602.655Z" fill="#475293"/>
<path d="M458.677 702.348C460.792 702.348 460.792 699.175 458.677 699.175C456.561 699.175 456.561 702.348 458.677 702.348Z" fill="#475293"/>
<path d="M621.307 685.688C623.422 685.688 623.422 682.515 621.307 682.515C619.191 682.515 619.191 685.688 621.307 685.688Z" fill="#475293"/>
<path d="M646.163 566.163C648.279 566.163 648.279 562.989 646.163 562.989C644.312 562.989 644.048 566.163 646.163 566.163Z" fill="#475293"/>
<path d="M535.1 468.32C537.215 468.32 537.215 465.147 535.1 465.147C532.984 465.147 532.984 468.32 535.1 468.32Z" fill="#475293"/>
<path d="M498.343 390.311C500.458 390.311 500.458 387.138 498.343 387.138C496.492 387.138 496.492 390.311 498.343 390.311Z" fill="#475293"/>
<path d="M247.92 420.193C250.035 420.193 250.035 417.019 247.92 417.019C245.804 417.019 245.804 420.193 247.92 420.193Z" fill="#475293"/>
<path d="M296.047 551.354C298.163 551.354 298.163 548.181 296.047 548.181C293.932 548.181 293.932 551.354 296.047 551.354Z" fill="#475293"/>
<path d="M227.822 473.08C229.938 473.08 229.938 469.907 227.822 469.907C225.971 470.171 225.971 473.08 227.822 473.08Z" fill="#475293"/>
<path d="M266.166 924.741C268.281 924.741 268.281 921.567 266.166 921.567C264.05 921.567 264.05 924.741 266.166 924.741Z" fill="#475293"/>
<path d="M257.704 987.942C259.819 987.942 259.819 984.768 257.704 984.768C255.853 984.768 255.853 987.942 257.704 987.942Z" fill="#475293"/>
<path d="M362.421 987.942C364.537 987.942 364.537 984.768 362.421 984.768C360.306 984.768 360.306 987.942 362.421 987.942Z" fill="#475293"/>
<path d="M578.203 845.145C580.319 845.145 580.319 841.971 578.203 841.971C576.088 841.971 576.088 845.145 578.203 845.145Z" fill="#475293"/>
<path d="M724.173 757.087C726.288 757.087 726.288 753.914 724.173 753.914C722.322 753.914 722.322 757.087 724.173 757.087Z" fill="#475293"/>
<path d="M699.316 567.749C701.431 567.749 701.431 564.576 699.316 564.576C697.2 564.576 697.2 567.749 699.316 567.749Z" fill="#475293"/>
<path d="M460.263 526.232C462.379 526.232 462.379 523.059 460.263 523.059C458.148 523.059 458.148 526.232 460.263 526.232Z" fill="#475293"/>
<path d="M342.324 600.804C344.44 600.804 344.44 597.63 342.324 597.63C340.209 597.63 340.209 600.804 342.324 600.804Z" fill="#475293"/>
<path d="M61.2262 504.548C63.3417 504.548 63.3417 501.375 61.2262 501.375C59.1106 501.375 59.1106 504.548 61.2262 504.548Z" fill="#475293"/>
<path d="M319.582 352.761C321.698 352.761 321.698 349.588 319.582 349.588C317.731 349.588 317.731 352.761 319.582 352.761Z" fill="#475293"/>
<path d="M180.223 802.835C182.339 802.835 182.339 799.661 180.223 799.661C178.108 799.661 178.108 802.835 180.223 802.835Z" fill="#475293"/>
<path d="M229.938 889.041C232.053 889.041 232.053 885.868 229.938 885.868C228.087 885.868 228.087 889.041 229.938 889.041Z" fill="#475293"/>
<path d="M377.759 779.564C379.874 779.564 379.874 776.391 377.759 776.391C375.643 776.391 375.643 779.564 377.759 779.564Z" fill="#475293"/>
<path d="M381.196 445.843C383.312 445.843 383.312 442.67 381.196 442.67C379.081 442.67 379.081 445.843 381.196 445.843Z" fill="#475293"/>
<path d="M137.12 552.147C139.235 552.147 139.235 548.974 137.12 548.974C135.004 548.974 135.004 552.147 137.12 552.147Z" fill="#475293"/>
<path d="M161.977 432.621C164.093 432.621 164.093 429.448 161.977 429.448C159.862 429.448 159.862 432.621 161.977 432.621Z" fill="#475293"/>
<path d="M94.0164 711.339C96.1319 711.339 96.1319 708.166 94.0164 708.166C91.9009 708.166 91.9009 711.339 94.0164 711.339Z" fill="#475293"/>
<path d="M239.986 623.545C242.102 623.545 242.102 620.372 239.986 620.372C237.871 620.372 237.871 623.545 239.986 623.545Z" fill="#475293"/>
<path d="M382.783 498.995C384.899 498.995 384.899 495.822 382.783 495.822C380.668 495.822 380.668 498.995 382.783 498.995Z" fill="#475293"/>
<path d="M215.129 434.208C217.245 434.208 217.245 431.034 215.129 431.034C213.014 431.034 213.014 434.208 215.129 434.208Z" fill="#475293"/>
<path d="M230.731 505.342C232.847 505.342 232.847 502.168 230.731 502.168C228.88 502.168 228.88 505.342 230.731 505.342Z" fill="#475293"/>
<path d="M217.509 882.166C219.625 882.166 219.625 878.993 217.509 878.993C215.658 878.993 215.658 882.166 217.509 882.166Z" fill="#475293"/>
<path d="M373.528 515.39C375.643 515.39 375.643 512.217 373.528 512.217C371.677 512.217 371.677 515.39 373.528 515.39Z" fill="#475293"/>
<path d="M272.248 603.184C274.363 603.184 274.363 600.01 272.248 600.01C270.397 600.275 270.397 603.184 272.248 603.184Z" fill="#475293"/>
<path d="M323.813 689.655C325.929 689.655 325.929 686.482 323.813 686.482C321.698 686.482 321.698 689.655 323.813 689.655Z" fill="#475293"/>
<path d="M347.084 850.698C349.199 850.698 349.199 847.525 347.084 847.525C344.968 847.525 344.968 850.698 347.084 850.698Z" fill="#475293"/>
<path d="M229.144 951.978C231.26 951.978 231.26 948.805 229.144 948.805C227.029 948.805 227.029 951.978 229.144 951.978Z" fill="#475293"/>
<path d="M122.84 913.634C124.956 913.634 124.956 910.461 122.84 910.461C120.989 910.461 120.989 913.634 122.84 913.634Z" fill="#475293"/>
<path d="M99.5696 724.561C101.685 724.561 101.685 721.388 99.5696 721.388C97.7185 721.388 97.7185 724.561 99.5696 724.561Z" fill="#475293"/>
<path d="M192.652 794.108C194.768 794.108 194.768 790.935 192.652 790.935C190.537 790.935 190.537 794.108 192.652 794.108Z" fill="#475293"/>
<path d="M234.169 734.345C236.284 734.345 236.284 731.172 234.169 731.172C232.053 731.436 232.053 734.345 234.169 734.345Z" fill="#475293"/>
<path d="M164.357 679.606C166.473 679.606 166.473 676.433 164.357 676.433C162.506 676.433 162.506 679.606 164.357 679.606Z" fill="#475293"/>
<path d="M83.1746 490.533C85.2901 490.533 85.2901 487.36 83.1746 487.36C81.0591 487.36 81.0591 490.533 83.1746 490.533Z" fill="#475293"/>
<path d="M330.424 971.811C332.54 971.811 332.54 968.637 330.424 968.637C328.309 968.637 328.309 971.811 330.424 971.811Z" fill="#475293"/>
<path d="M401.823 487.095C403.938 487.095 403.938 483.922 401.823 483.922C399.707 483.922 399.707 487.095 401.823 487.095Z" fill="#475293"/>
<path d="M232.582 604.241C234.698 604.241 234.698 601.068 232.582 601.068C230.467 601.068 230.467 604.241 232.582 604.241Z" fill="#475293"/>
<path d="M402.88 381.056C404.996 381.056 404.996 377.882 402.88 377.882C401.029 377.882 401.029 381.056 402.88 381.056Z" fill="#475293"/>
<path d="M354.753 420.986C356.868 420.986 356.868 417.812 354.753 417.812C352.902 417.812 352.637 420.986 354.753 420.986Z" fill="#475293"/>
<path d="M72.597 781.151C74.7125 781.151 74.7125 777.978 72.597 777.978C70.4815 777.978 70.4815 781.151 72.597 781.151Z" fill="#475293"/>
<path d="M351.579 902.264C353.695 902.264 353.695 899.09 351.579 899.09C349.464 899.355 349.464 902.264 351.579 902.264Z" fill="#475293"/>
<path d="M401.294 988.735C403.409 988.735 403.409 985.562 401.294 985.562C399.178 985.562 399.178 988.735 401.294 988.735Z" fill="#475293"/>
<path d="M94.2808 460.916C96.3963 460.916 96.3963 457.743 94.2808 457.743C92.1653 457.743 92.1653 460.916 94.2808 460.916Z" fill="#475293"/>
<path d="M71.0103 568.807C73.1258 568.807 73.1258 565.634 71.0103 565.634C68.8948 565.634 68.8948 568.807 71.0103 568.807Z" fill="#475293"/>
<path d="M145.582 668.236C147.697 668.236 147.697 665.062 145.582 665.062C143.731 665.062 143.731 668.236 145.582 668.236Z" fill="#475293"/>
<path d="M308.212 651.84C310.327 651.84 310.327 648.667 308.212 648.667C306.36 648.667 306.36 651.84 308.212 651.84Z" fill="#475293"/>
<path d="M333.333 532.314C335.449 532.314 335.449 529.141 333.333 529.141C331.218 529.141 331.218 532.314 333.333 532.314Z" fill="#475293"/>
<path d="M222.005 434.208C224.12 434.208 224.12 431.034 222.005 431.034C219.889 431.034 219.889 434.208 222.005 434.208Z" fill="#475293"/>
<path d="M185.512 356.198C187.628 356.198 187.628 353.025 185.512 353.025C183.397 353.025 183.397 356.198 185.512 356.198Z" fill="#475293"/>
<path d="M49.3264 953.829C51.4419 953.829 51.4419 950.656 49.3264 950.656C47.2109 950.656 47.2109 953.829 49.3264 953.829Z" fill="#475293"/>
<path d="M265.108 811.032C267.224 811.032 267.224 807.859 265.108 807.859C263.257 807.859 263.257 811.032 265.108 811.032Z" fill="#475293"/>
<path d="M411.342 722.974C413.458 722.974 413.458 719.801 411.342 719.801C409.227 720.065 409.227 722.974 411.342 722.974Z" fill="#475293"/>
<path d="M386.221 533.901C388.336 533.901 388.336 530.728 386.221 530.728C384.37 530.728 384.37 533.901 386.221 533.901Z" fill="#475293"/>
<path d="M147.169 492.384C149.284 492.384 149.284 489.211 147.169 489.211C145.318 489.211 145.318 492.384 147.169 492.384Z" fill="#475293"/>
<path d="M445.191 230.061C447.306 230.061 447.306 226.888 445.191 226.888C443.339 226.888 443.339 230.061 445.191 230.061Z" fill="#475293"/>
<path d="M239.457 238.259C241.573 238.259 241.573 235.086 239.457 235.086C237.342 235.086 237.342 238.259 239.457 238.259Z" fill="#475293"/>
<defs>
<linearGradient id="paint0_linear_3_2342" x1="678.132" y1="1012.74" x2="678.132" y2="0" gradientUnits="userSpaceOnUse">
<stop stop-color="#00457F"/>
<stop offset="0.0522917" stop-color="#004179"/>
<stop offset="0.5279" stop-color="#001E49"/>
<stop offset="0.6676" stop-color="#00122F"/>
<stop offset="0.8515" stop-color="#000513"/>
<stop offset="0.9575" stop-color="#000008"/>
</linearGradient>
</defs>
</svg>
